<?xml version="1.0" encoding="utf-8"?>
<!-- Generator: Adobe Illustrator 16.0.0, SVG Export Plug-In . SVG Version: 6.00 Build 0)  -->
<!DOCTYPE svg PUBLIC "-//W3C//DTD SVG 1.1//EN" "http://www.w3.org/Graphics/SVG/1.1/DTD/svg11.dtd">
<svg version="1.1" id="Layer_1" xmlns="http://www.w3.org/2000/svg" xmlns:xlink="http://www.w3.org/1999/xlink" x="0px" y="0px"
	 width="300px" height="300px" viewBox="0 0 300 300" enable-background="new 0 0 300 300" xml:space="preserve">
<g>
	<g>
		<g>
			<g opacity="0.5">
				<g>
					<path fill="#E9DDCB" d="M93.251,133.992c0.223,6.711,2.982,12.945,7.991,17.464c4.156,3.75,10.42,3.114,13.439-1.732
						c1.602-2.569,2.529-5.543,3.565-8.374c0.132-0.361,1.031-2.409,0.136-0.403c0.259-0.58,0.572-1.129,0.894-1.676
						c1.029-1.745-1.225,1.258,0.163-0.119c-0.27,0.212-0.539,0.425-0.809,0.637c0.812-0.438,0.68-0.382-0.396,0.167
						c4.457-1.365,7.241-5.933,5.978-10.526c-1.21-4.398-6.067-7.342-10.526-5.977c-4.575,1.401-8.009,4.575-10.082,8.856
						c-0.897,1.853-1.618,3.809-2.316,5.746c-0.295,0.816-0.595,1.63-0.915,2.438c0.854-2.157-0.191,0.148-0.469,0.594
						c4.479-0.578,8.96-1.155,13.439-1.732c-0.637-0.575-1.225-1.164-1.8-1.802c0.996,1.106-0.569-1.042-0.605-1.106
						c-1.202-2.101,0.275,1.143-0.417-1.194c-0.689-2.328-0.073,1.213-0.155-1.26c-0.155-4.661-3.776-8.557-8.558-8.557
						C97.261,125.435,93.097,129.328,93.251,133.992L93.251,133.992z"/>
				</g>
			</g>
			<g opacity="0.5">
				<g>
					<path fill="#E9DDCB" d="M156.49,125.07c3.906,6.05,11.022,10.833,17.97,6.003c4.967-3.453,6.78-9.157,9.585-14.215
						c-4.926,0-9.852,0-14.777,0c3.826,6.06,8.145,12.013,10.288,18.92c1.978,6.373-1.194,13.64-1.412,20.115
						c-0.226,6.722,7.371,10.348,12.877,7.389c4.457-2.396,7.401-6.283,9.46-10.822c1.928-4.248,1.259-9.172-3.069-11.708
						c-3.709-2.172-9.78-1.179-11.708,3.07c-0.858,1.89-1.485,3.696-3.321,4.682c4.292,2.463,8.585,4.926,12.877,7.389
						c0.288-8.59,2.989-15.989,0.8-24.665c-2.117-8.391-7.465-15.804-12.014-23.008c-3.336-5.285-11.561-5.801-14.777,0
						c-1.172,2.113-2.154,4.322-3.244,6.478c-0.471,0.929-1.005,1.813-1.564,2.69c1.479-2.319,8.499,1.662,6.809-0.956
						C165.305,107.197,150.483,115.768,156.49,125.07L156.49,125.07z"/>
				</g>
			</g>
		</g>
		<g opacity="0.5">
			<g>
				<path fill="#E7633E" d="M135.025,179.092c1.539,13.123-7.073,24.971-4.324,38.328c1.33,6.461,12.022,6.654,13.203,0
					c1.917-10.809,5.437-21.373,10.265-31.227c-4.171-0.545-8.342-1.09-12.513-1.635c4.646,12.047,1.674,26.026,8.907,37.236
					c2.854,4.424,11.604,4.691,12.513-1.635c1.668-11.618-1.801-24.566,2.742-35.602c-3.814,1.007-7.628,2.014-11.442,3.021
					c8.228,7.109,10.328,17.63,8.274,28.028c-1.702,8.623,11.493,12.298,13.203,3.641c2.95-14.945,0.189-30.993-11.796-41.351
					c-4.194-3.624-9.435-1.855-11.442,3.021c-4.729,11.489-1.038,23.731-2.742,35.602c4.171-0.545,8.342-1.09,12.513-1.635
					c-6.306-9.773-3.396-23.257-7.526-33.967c-1.924-4.986-9.641-7.496-12.513-1.635c-5.346,10.907-9.521,22.518-11.646,34.496
					c4.401,0,8.802,0,13.203,0c-1.123-5.452,1.143-11.327,2.559-16.531c1.602-5.889,2.973-12.031,2.254-18.156
					c-0.435-3.705-2.785-6.846-6.846-6.846C138.469,172.246,134.59,175.377,135.025,179.092L135.025,179.092z"/>
			</g>
		</g>
		<g opacity="0.5">
			<g>
				<path fill="#594A42" d="M163.32,84.157c-1.215,15.938-19.056,28.333-33.309,31.74c2.577,3.352,5.154,6.704,7.731,10.056
					c9.521-16.984,18.312-34.39,28.291-51.115c-4.171-0.545-8.342-1.09-12.513-1.635c1.378,8.248-8.396,16.912-13.771,21.71
					c-7.167,6.4-16.053,12.502-25.259,15.504c2.577,3.352,5.154,6.704,7.731,10.056c7.677-13.771,22.137-22.012,32.705-33.298
					c3.398-3.629,2.157-10.195-3.021-11.442c-20.842-5.021-37.188,13.381-47.897,28.704c3.94,2.303,7.882,4.607,11.822,6.91
					c7.328-10.721,14.631-21.436,23.206-31.218c7.551-8.613,18.046-19.865,30.213-21.069c-1.151-4.252-2.304-8.504-3.455-12.757
					c-13.231,8.202-28.398,12.652-41.517,21.055c-15.077,9.657-23.239,24.392-23.028,42.359c4.563,0,9.128,0,13.691,0
					c-0.668-12.961,5.602-25.227,13.854-34.866c8.022-9.371,19.514-17.862,32.239-18.53c8.779-0.46,8.834-14.126,0-13.691
					c-17.747,0.874-37.756-1.212-50.478,13.869c-12.491,14.808-16.006,34.671-19.103,53.223c4.401,0,8.802,0,13.203,0
					c-5.929-30.567,27.687-59.298,56.377-58.879c-0.606-4.482-1.213-8.965-1.82-13.447c-15.373,2.764-32.281-2.439-45.794,7.743
					c-11.844,8.925-18.688,22.749-23.952,36.255c-12.865,33.01-9.516,70.277,1.986,103.166c2.482,7.097,13.489,6.213,13.447-1.82
					c-0.197-38.278-13.852-78.442-1.16-115.926c2.229-6.584-6.812-11.458-11.442-6.661c-19.165,19.863-16.064,53.464-13.962,78.656
					c1.104,13.229,2.325,26.449,3.507,39.671c1.417,15.846,2.848,32.395,9.486,47.048c1.708,3.771,8.151,4.65,10.752,1.386
					c6.484-8.142,9.57-18.3,11.942-28.298c2.365-9.968,3.85-20.259,4.566-30.477c-4.252,1.151-8.505,2.304-12.757,3.455
					c2.966,6.795,3.364,14.955,3.899,22.238c0.592,8.035,0.695,16.096,1.205,24.135c0.555,8.739,13.608,8.898,13.691,0
					c0.138-14.795,4.019-28.953,6.496-43.447c1.476-8.634-11.718-12.33-13.203-3.641c-2.682,15.69-6.836,31.069-6.984,47.088
					c4.563,0,9.128,0,13.691,0c-1.117-17.6,0.225-36.79-6.974-53.283c-2.97-6.805-12.331-2.614-12.757,3.455
					c-0.604,8.59-1.932,17.1-3.774,25.509c-1.692,7.724-3.663,17.229-8.725,23.584c3.584,0.462,7.168,0.924,10.752,1.386
					c-5.558-12.268-6.409-26.913-7.616-40.138c-1.13-12.368-2.19-24.742-3.287-37.114c-1.187-13.38-2.038-26.84-1.104-40.264
					c0.757-10.858,3.003-23.151,10.835-31.268c-3.814-2.22-7.628-4.44-11.442-6.661c-13.181,38.931,0.467,79.875,0.672,119.565
					c4.482-0.606,8.965-1.213,13.447-1.82c-10.318-29.502-13.879-62.016-3.422-91.99c4.121-11.814,9.854-23.835,19.43-32.185
					c5.283-4.606,12.878-4.779,19.506-4.884c7.635-0.121,15.128,0.096,22.684-1.262c7.812-1.404,5.671-13.337-1.82-13.447
					c-38.205-0.558-77.192,36.962-69.58,76.21c1.256,6.473,12.094,6.648,13.203,0c2.655-15.912,5.255-32.965,14.893-46.362
					c9.288-12.912,27.653-9.997,41.484-10.677c0-4.564,0-9.127,0-13.691c-31.509,1.654-61.404,35.664-59.785,67.088
					c0.451,8.762,13.796,8.876,13.691,0c-0.173-14.703,6.641-24.808,18.985-32.236c12.406-7.465,26.454-11.716,38.778-19.355
					c5.371-3.329,3.693-13.464-3.455-12.757c-15.499,1.534-27.788,11.971-38.007,22.985c-10.262,11.062-18.742,23.659-27.234,36.083
					c-5.011,7.33,6.815,14.074,11.822,6.91c6.732-9.633,18.794-25.698,32.435-22.412c-1.007-3.814-2.014-7.628-3.021-11.442
					c-11.454,12.231-26.5,21.097-34.846,36.069c-2.8,5.022,1.818,11.985,7.731,10.056c11.983-3.908,22.92-11.542,32.242-19.867
					c9.679-8.643,18.627-20.553,16.35-34.19c-1.021-6.115-9.716-6.324-12.513-1.635c-9.979,16.725-18.771,34.131-28.291,51.115
					c-2.996,5.345,1.887,11.454,7.731,10.056c20.699-4.948,41.668-22.74,43.359-44.942C177.683,75.346,163.986,75.411,163.32,84.157
					L163.32,84.157z"/>
			</g>
		</g>
		<g opacity="0.5">
			<g>
				<path fill="#594A42" d="M175.426,88.721c3.229,15.63,12.746,28.726,19.868,42.709c2.981,5.855,13.472,3.356,12.757-3.455
					c-1.081-10.3-4.737-19.117-11.128-27.25c-5.706-7.262-12.697-13.435-18.107-20.935c-1.363,3.352-2.728,6.704-4.091,10.056
					c5.137-1.127,9.847-1.333,14.453-0.021c3.445,0.981,6.921,3.598,8.949,6.286c6.097,8.079,7.896,18.869,8.667,29.058
					c1.608,21.286-1.106,43.437-6.716,63.971c4.482,0.607,8.965,1.214,13.447,1.82c-0.694-25.91,8.418-51.185-0.244-76.676
					c-7.181-21.132-25.608-34.267-38.118-51.835c-1.971,3.434-3.94,6.867-5.911,10.301c10.771-1.368,19.307,1.43,26.515,9.282
					c7.685,8.371,11.52,20.379,14.133,31.327c2.939,12.313,4.046,25.001,4.239,37.636c0.161,10.519-0.385,21.584-2.197,30.837
					c4.482,0.607,8.965,1.214,13.447,1.82c-2.227-27.073-0.615-54.561-7.493-81.087c-3.064-11.821-7.918-23.981-16.616-32.773
					c-6.7-6.772-16.848-12.192-19.035-22.136c-1.594,2.807-3.188,5.614-4.781,8.421c4.742-1.097,8.104-0.312,12.08,2.293
					c4.181,2.741,7.454,8.054,9.912,12.648c6.192,11.574,9.146,25.012,11.288,37.86c6.416,38.478-3.242,77.4-5.335,115.932
					c4.482-0.606,8.965-1.213,13.447-1.82c-7.309-18.084-11.642-36.935-16.535-55.76c-1.958-7.529-13.46-5.893-13.447,1.82
					c0.027,17.232,0.487,33.975-5.121,50.516c4.401,0,8.802,0,13.203,0c-2.586-15.484-5.928-30.062-13.577-43.93
					c-3.176-5.758-13.279-3.439-12.757,3.455c1.085,14.308,8.723,28.451,6.637,42.906c-0.532,3.69,0.851,7.34,4.781,8.422
					c3.253,0.895,7.888-1.082,8.422-4.781c1.147-7.952,0.638-15.422-1.079-23.26c-1.703-7.776-4.464-15.3-5.069-23.287
					c-4.252,1.151-8.505,2.304-12.757,3.455c7.05,12.783,9.815,26.396,12.196,40.66c1.203,7.204,11.228,5.826,13.203,0
					c5.984-17.653,5.639-35.765,5.609-54.156c-4.482,0.606-8.965,1.213-13.447,1.82c4.895,18.824,9.227,37.675,16.535,55.76
					c2.84,7.025,13.008,6.269,13.447-1.82c1.356-24.958,5.844-49.612,7.173-74.567c0.894-16.77-0.097-33.386-3.19-49.879
					c-4.493-23.944-17.09-64.932-49.26-57.489c-3.771,0.873-5.556,4.898-4.781,8.421c2.285,10.382,10.255,17.261,17.919,23.924
					c3.589,3.12,7.14,6.318,9.596,10.431c3.506,5.873,5.813,12.447,7.707,18.984c7.408,25.572,5.275,52.766,7.435,79.018
					c0.595,7.235,11.87,9.871,13.447,1.82c4.99-25.477,3.624-53.628-2.77-78.7c-6.483-25.421-23.424-51.485-53.123-47.713
					c-4.569,0.58-9.283,5.566-5.911,10.301c11.755,16.508,29.231,29.259,36.737,48.564c9.064,23.313-0.887,49.05-0.244,73.037
					c0.205,7.669,11.378,9.396,13.447,1.82c9.688-35.464,20.676-129.938-42.197-116.137c-4.057,0.891-6.623,6.546-4.091,10.056
					c9.546,13.235,25.543,23.904,27.366,41.275c4.252-1.152,8.505-2.304,12.757-3.455c-6.593-12.945-15.501-24.979-18.487-39.439
					C186.843,76.438,173.646,80.105,175.426,88.721L175.426,88.721z"/>
			</g>
		</g>
		<g>
			<g>
				<path fill="#414042" d="M94.423,130.905c1.145,27.438,28.239,40.094,52.28,42.751c19.464,2.15,53.146-1.339,59.171-24.578
					c0.78-3.01-3.867-4.287-4.646-1.281c-5.276,20.356-35.906,22.557-52.662,21.218c-21.781-1.741-48.278-13.024-49.324-38.11
					C99.112,127.81,94.293,127.797,94.423,130.905L94.423,130.905z"/>
			</g>
		</g>
		<g>
			<g>
				<path fill="#414042" d="M136.927,223.539c-1.218,4.677-1.786,9.484-2.678,14.228c-0.66,3.513-1.637,10.351-6.196,10.648
					c-3.084,0.201-3.104,5.021,0,4.818c12.228-0.799,11.305-19.903,13.521-28.413C142.356,221.811,137.709,220.535,136.927,223.539
					L136.927,223.539z"/>
			</g>
		</g>
		<g>
			<g>
				<path fill="#414042" d="M157.618,228.193c0.91,10.198-0.33,21.778,9.193,28.258c2.576,1.753,4.983-2.424,2.432-4.16
					c-7.589-5.163-6.091-16.074-6.807-24.098C162.162,225.124,157.342,225.098,157.618,228.193L157.618,228.193z"/>
			</g>
		</g>
		<g>
			<g>
				<path fill="#414042" d="M171.773,183.271c7.321-1.801,17.271-4.586,19.522-12.879c2.423-8.927-7.386-18.13-12.937-23.507
					c-2.231-2.161-5.642,1.242-3.406,3.407c4.48,4.34,12.932,11.65,11.697,18.818c-1.079,6.262-11.238,8.305-16.158,9.514
					C167.477,179.366,168.756,184.012,171.773,183.271L171.773,183.271z"/>
			</g>
		</g>
		<g>
			<g>
				<g>
					<path fill="#414042" d="M90.662,227.454c5.988-2.494,12.188-1.766,18.51-1.618c6.312,0.147,12.612,0.642,18.881,1.384
						c3.082,0.364,3.047-4.457,0-4.818c-6.705-0.794-13.43-1.256-20.179-1.414c-6.363-0.147-12.485-0.682-18.493,1.82
						C86.557,223.984,87.794,228.648,90.662,227.454L90.662,227.454z"/>
				</g>
			</g>
			<g>
				<g>
					<g>
						<path fill="#414042" d="M174.858,88.679c1.563,18.946-24.204,28.657-37.867,35.538c-2.775,1.398-0.335,5.554,2.432,4.16
							c15.368-7.74,42.005-18.468,40.254-39.698C179.423,85.605,174.603,85.581,174.858,88.679L174.858,88.679z"/>
					</g>
				</g>
				<g>
					<g>
						<path fill="#414042" d="M138.958,124.699c-1.134-0.582-1.81-3.621-2.513-4.704c-0.9-1.388-2.559-1.502-3.783-0.488
							c-2.346,1.944-4.424,3.978-6.203,6.455c1.261-0.163,2.522-0.325,3.783-0.488c-2.486-2.753-6.182-4.86-7.922-8.183
							c-0.696-1.33-2.774-1.618-3.783-0.488c-3.5,3.921-8.022,6.714-11.521,10.635c1.136,0,2.271,0,3.406,0
							c-2.236-2.223-5.099-3.604-7.264-5.943c-1.09-1.177-2.98-0.778-3.783,0.488c-1.255,1.979-2.46,3.957-4.148,5.602
							c-2.229,2.171,1.181,5.575,3.406,3.407c1.981-1.93,3.428-4.251,4.902-6.577c-1.261,0.163-2.522,0.325-3.783,0.488
							c2.172,2.347,5.031,3.725,7.264,5.943c0.891,0.886,2.53,0.982,3.406,0c3.5-3.921,8.021-6.715,11.521-10.635
							c-1.261-0.163-2.522-0.325-3.783-0.488c1.978,3.775,5.872,6.054,8.676,9.159c1.121,1.241,2.927,0.705,3.783-0.488
							c1.532-2.132,3.443-3.817,5.449-5.479c-1.261-0.163-2.522-0.325-3.783-0.488c1.378,2.124,1.823,5.191,4.241,6.433
							C139.284,130.276,141.723,126.119,138.958,124.699L138.958,124.699z"/>
					</g>
				</g>
				<g>
					<g>
						<path fill="#414042" d="M94.933,130.108c2.585,16.589,3.407,33.263,4.257,50.006c0.638,12.546,1.691,25.135,5.612,37.142
							c0.961,2.939,5.613,1.681,4.646-1.281c-4.09-12.52-4.936-25.584-5.58-38.651c-0.801-16.247-1.782-32.406-4.289-48.496
							C99.102,125.765,94.46,127.07,94.933,130.108L94.933,130.108z"/>
					</g>
				</g>
				<g>
					<g>
						<path fill="#414042" d="M108.863,215.869c-4.327-4.976-8.139-10.021-9.74-16.5c-1.484-6.007-2.311-12.069-4.138-18.012
							c-0.911-2.96-5.562-1.696-4.646,1.281c1.994,6.482,2.792,13.169,4.573,19.682c1.788,6.536,6.183,11.941,10.545,16.955
							C107.499,221.624,110.893,218.201,108.863,215.869L108.863,215.869z"/>
					</g>
				</g>
				<g>
					<g>
						<path fill="#414042" d="M174.944,89.32c1.562,9.704,5.475,18.947,9.94,27.643c4.613,8.985,10.435,17.959,18.049,24.699
							c2.317,2.051,5.737-1.344,3.406-3.407c-7.012-6.206-12.147-14.229-16.592-22.393c-4.703-8.639-8.588-18.07-10.157-27.823
							C179.098,84.978,174.456,86.281,174.944,89.32L174.944,89.32z"/>
					</g>
				</g>
				<g>
					<g>
						<path fill="#414042" d="M197.005,113.765c7.425,32.796,10.001,66.803,4.719,100.133c-0.481,3.039,4.161,4.343,4.646,1.281
							c5.424-34.229,2.908-69.002-4.719-102.696C200.965,109.454,196.32,110.739,197.005,113.765L197.005,113.765z"/>
					</g>
				</g>
				<g>
					<g>
						<path fill="#414042" d="M206.37,215.18c4.541-15.242,7.151-30.784,9.137-46.539c0.388-3.077-4.436-3.04-4.818,0
							c-1.931,15.329-4.548,30.433-8.965,45.258C200.835,216.884,205.484,218.149,206.37,215.18L206.37,215.18z"/>
					</g>
				</g>
				<g>
					<g>
						<path fill="#414042" d="M170.469,38.109c-30.033-4.686-66.698-4.277-84.224,24.964c-15.001,25.031-11.944,58.725-9.543,86.473
							c2.201,25.431,6.071,50.794,6.436,76.354c0.045,3.104,4.862,3.108,4.818,0c-0.469-32.846-6.56-65.321-7.867-98.125
							c-1.043-26.149-0.126-59.898,23.472-76.71c18.547-13.215,44.326-11.634,65.627-8.311
							C172.227,43.229,173.531,38.586,170.469,38.109L170.469,38.109z"/>
					</g>
				</g>
				<g>
					<g>
						<path fill="#414042" d="M174.357,43.139c17.277-2.506,32.073,6.625,39.273,22.309c6.354,13.844,8.166,30.479,9.017,45.511
							c1.07,18.902-1.309,38.166-2.774,56.997c-1.579,20.289-3.008,40.599-2.497,60.963c0.078,3.102,4.896,3.108,4.818,0
							c-0.558-22.237,1.21-44.4,2.932-66.552c1.572-20.219,3.644-40.616,1.587-60.865c-1.525-15.014-4.032-31.705-12.301-44.655
							c-9.173-14.365-24.726-20.762-41.336-18.352C170.012,38.938,171.319,43.58,174.357,43.139L174.357,43.139z"/>
					</g>
				</g>
				<g>
					<g>
						<path fill="#414042" d="M177.344,228.597c11.811-0.346,25.812-1.778,37.016,2.645c2.894,1.142,4.136-3.52,1.281-4.646
							c-11.611-4.582-26.076-3.173-38.297-2.816C174.244,223.869,174.235,228.688,177.344,228.597L177.344,228.597z"/>
					</g>
				</g>
			</g>
		</g>
		<g>
			<g>
				<path fill="#414042" d="M113.681,138.706c-0.029,0.148-0.202,0.56,0.035,0.035c-0.084,0.185-0.194,0.358-0.301,0.529
					c-0.362,0.584,0.298-0.322-0.145,0.207c-0.173,0.206-0.37,0.387-0.577,0.557c-1.147,0.947-0.837,3.148,0.487,3.784
					c1.059,0.508,2.024,0.951,3.202,1.063c1.265,0.121,3.254-0.317,3.916-1.444c1.191-2.026,0.103-4.375-1.894-5.364
					c-1.177-0.583-2.599-0.326-3.296,0.864c-0.629,1.074-0.312,2.713,0.864,3.296c0.188,0.094,0.731,0.509,0.127,0.027
					c0.176,0.14,0.454,0.597,0.084,0.032c-0.217-0.332-0.25-0.939-0.046-1.287c0.479-0.369,0.96-0.738,1.439-1.107
					c-0.303,0.061-0.605,0.121-0.909,0.175c-0.287,0.046-0.242,0.04,0.134-0.017c-0.14,0.015-0.28,0.013-0.42,0.007
					c0.768,0.028,0.089-0.015-0.176-0.114c0.635,0.236-0.449-0.222-0.595-0.292c0.162,1.261,0.325,2.522,0.487,3.784
					c0.997-0.822,1.97-2.167,2.228-3.454c0.257-1.287-0.351-2.597-1.683-2.963C115.447,136.694,113.938,137.417,113.681,138.706
					L113.681,138.706z"/>
			</g>
		</g>
		<g>
			<g>
				<path fill="#414042" d="M179.514,144.76c-0.119-0.241-0.184-0.496-0.193-0.765c0.071-0.434,0.083-0.521,0.035-0.262
					c-0.074,0.392-0.133,0.781-0.183,1.178c-0.111,0.891,0.34,1.893,0.939,2.527c1.314,1.389,4.179,1.997,5.594,0.482
					c1.305-1.397,1.764-3.034,0.977-4.81c-0.214-0.484-0.65-0.899-1.036-1.256c-0.134-0.123-0.267-0.245-0.396-0.372
					c-0.062-0.063-0.124-0.129-0.182-0.197c0.498,0.559-0.008-0.201,0.282,0.507c-0.498-1.214-1.582-2.062-2.964-1.682
					c-1.151,0.316-2.181,1.746-1.683,2.963c0.381,0.93,0.904,1.604,1.634,2.278c0.097,0.089,0.188,0.183,0.277,0.278
					c-0.237-0.33-0.288-0.394-0.15-0.192c0.118,0.219,0.084,0.135-0.101-0.25c-0.072-0.26-0.07-0.519,0.008-0.777
					c-0.069,0.233-0.045,0.191,0.072-0.127c-0.063,0.118-0.136,0.231-0.215,0.34c0.126-0.184,0.086-0.152-0.12,0.094
					c0.567-0.235,1.136-0.47,1.703-0.706c-0.423-0.054-0.847-0.108-1.27-0.162c0.405,0.11,0.811,0.219,1.216,0.329
					c-0.488-0.259,0.075,0.213,0.171,0.505c0.037,0.411,0.058,0.487,0.062,0.227c-0.035,0.712-0.031,0.3,0.011,0.103
					c0.196-0.927,0.189-1.856-0.328-2.685c-0.694-1.112-2.138-1.542-3.296-0.864C179.271,142.113,178.817,143.646,179.514,144.76
					L179.514,144.76z"/>
			</g>
		</g>
		<g>
			<g>
				<path fill="#414042" d="M131.947,179.915c-5.365-1.677-12.202-3.495-15.7-8.286c-3.946-5.408,0.455-13.302,3.159-18.167
					c1.511-2.718-2.65-5.147-4.16-2.432c-3.738,6.727-7.47,14.886-3.586,22.344c3.425,6.578,12.525,9.161,19.006,11.188
					C133.64,185.491,134.902,180.839,131.947,179.915L131.947,179.915z"/>
			</g>
		</g>
		<g>
			<g>
				<path fill="#414042" d="M133.219,171.459c-2.369,11.601-7.142,22.954-7.721,34.865c-0.555,11.384,6.748,18.131,17.376,20.447
					c12.164,2.652,28.085,2.814,31.995-11.505c3.693-13.527-2.354-29.803-6.092-42.679c-0.802-2.762-5.114-1.586-4.309,1.188
					c3.372,11.617,7.328,23.838,6.725,36.075c-0.246,5.011-2.01,9.783-6.602,12.245c-5.856,3.141-15.508,1.462-21.649,0.123
					c-10.324-2.251-13.832-9.305-12.7-19.238c1.173-10.299,5.216-20.199,7.285-30.334
					C138.102,169.834,133.795,168.636,133.219,171.459L133.219,171.459z"/>
			</g>
		</g>
		<g>
			<g opacity="0.5">
				<g>
					<path fill="#A7A9AC" d="M122.246,138.553c-1.795,4.493-3.51,8.964-4.566,13.695c-0.691,3.096,3.358,6.117,5.721,3.33
						c4.427-5.22,9.184-10.153,14.825-14.07c-1.676-1.289-3.353-2.577-5.028-3.866c-2.005,7.74-4.757,15.247-7.307,22.817
						c-1.184,3.517,3.311,5.366,5.721,3.33c2.218-1.872,5.045-2.602,7.53-4.024c-1.717-0.985-3.434-1.971-5.15-2.956
						c0.023,2.284,0.145,4.315,1.371,6.288c0.59,0.948,1.77,1.821,2.956,1.695c5.876-0.623,10.592,2.175,16.339-0.467
						c-1.561-0.41-3.122-0.819-4.684-1.229c1.362,2.279,3.624,5.212,6.64,3.445c2.383-1.396,1.681-4.853,4.523-5.517
						c-1.289-0.524-2.577-1.049-3.866-1.573c3.793,5.109,9.789,7.093,13.484,0.666c3.38-5.88,3.012-14.627,0.129-20.57
						c-2.974-6.131-11.524-6.548-17.372-7.029c-3.343-0.275-6.688-0.446-9.9-1.49c-3.35-1.088-2.749-4.317-1.992-7.086
						c-1.101,0.837-2.2,1.675-3.301,2.513c4.276,0.168,8.095,1.591,11.277,4.476c3.262,2.957,8.118-1.87,4.84-4.841
						c-4.555-4.128-9.989-6.24-16.117-6.48c-1.511-0.06-2.911,1.088-3.301,2.513c-1.367,5.004-1.343,10.814,3.503,13.939
						c4.363,2.813,9.98,2.905,14.991,3.303c4.982,0.396,10.775,0.357,12.265,5.976c0.78,2.946,0.515,6.262-0.18,9.19
						c-0.247,1.043-0.616,2.202-1.33,3.03c-0.354,0.245-0.202,0.255,0.46,0.028c-0.524-0.097-1.323-1.295-1.544-1.593
						c-0.958-1.29-2.233-1.954-3.866-1.573c-2.132,0.498-3.925,1.489-5.241,3.273c-0.466,0.632-0.812,1.233-1.136,1.948
						c-0.193,0.428-1.429,2.486-0.474,1.521c0.807-0.334,1.613-0.669,2.42-1.003c1.697,0.873,2.03,0.699,1-0.521
						c-1.026-1.717-2.977-2.013-4.684-1.229c-3.816,1.755-8.788-0.901-12.884-0.467c0.985,0.565,1.971,1.13,2.956,1.695
						c-0.401-0.907-0.547-1.852-0.438-2.833c-0.027-2.604-2.885-4.253-5.15-2.956c-3.092,1.771-6.151,2.763-8.915,5.097
						c1.906,1.109,3.813,2.22,5.721,3.33c2.549-7.571,5.302-15.077,7.307-22.817c0.705-2.723-2.452-5.654-5.028-3.866
						c-6.139,4.262-11.388,9.453-16.21,15.142c1.906,1.109,3.813,2.22,5.721,3.33c1.057-4.732,2.771-9.203,4.566-13.695
						C130.487,136.27,123.863,134.506,122.246,138.553L122.246,138.553z"/>
				</g>
			</g>
			<g>
				<g>
					<g>
						<path fill="#414042" d="M114.758,141.291c0.125,8.571,1.938,16.992,2.076,25.557c0.022,1.402,1.151,2.564,2.568,2.568
							c19.118,0.054,38.219,1.604,57.254-0.908c1.62-0.214,2.965-1.479,2.477-3.251c-2.894-10.485-0.321-21.484-1.139-32.179
							c-0.114-1.499-1.089-2.431-2.568-2.568c-19.56-1.822-39.37-1.017-58.782,1.913c-3.267,0.493-1.874,5.442,1.365,4.953
							c18.938-2.858,38.343-3.506,57.417-1.729c-0.856-0.856-1.712-1.712-2.568-2.568c0.855,11.192-1.711,22.553,1.322,33.544
							c0.825-1.084,1.651-2.167,2.477-3.251c-19.035,2.512-38.136,0.962-57.254,0.908c0.856,0.856,1.712,1.712,2.568,2.568
							c-0.138-8.565-1.951-16.986-2.076-25.557C119.846,137.981,114.71,137.977,114.758,141.291L114.758,141.291z"/>
					</g>
				</g>
				<g>
					<g>
						<path fill="#414042" d="M134.473,132.462c2.136-4.348,3.917-8.86,5.714-13.355c1.153-2.888-3.508-4.129-4.646-1.281
							c-1.643,4.111-3.274,8.229-5.228,12.205C128.948,132.809,133.103,135.251,134.473,132.462L134.473,132.462z"/>
					</g>
				</g>
				<g>
					<g>
						<path fill="#414042" d="M136.957,122.25c4.813-0.002,9.578-0.12,14.324-1.002c3.052-0.567,1.756-5.21-1.281-4.646
							c-4.312,0.801-8.671,0.828-13.043,0.83C133.851,117.433,133.85,122.25,136.957,122.25L136.957,122.25z"/>
					</g>
				</g>
				<g>
					<g>
						<path fill="#414042" d="M148.063,120.093c4.618,2.888,8.011,7.288,11.372,11.488c1.941,2.426,5.327-1.007,3.406-3.407
							c-3.645-4.554-7.343-9.112-12.347-12.241C147.853,114.28,145.437,118.45,148.063,120.093L148.063,120.093z"/>
					</g>
				</g>
				<g>
					<g>
						<path fill="#414042" d="M151.281,138.056c-6.466-2.391-12.922,0.649-14.267,7.611c-1.337,6.919,3.1,13.262,9.777,14.977
							c7.265,1.865,14.81-2.261,15.638-9.994c0.773-7.226-4.539-12.971-11.789-12.681c-3.096,0.124-3.108,4.943,0,4.818
							c4.552-0.183,7.263,2.802,7.032,7.29c-0.277,5.398-5.89,6.873-10.3,5.74c-8.513-2.186-7.188-16.746,2.627-13.117
							C152.921,143.782,154.169,139.124,151.281,138.056L151.281,138.056z"/>
					</g>
				</g>
				<g>
					<g>
						<path fill="#414042" d="M128.696,143.757c0.866,4.326,1.674,8.626,1.74,13.051c0.047,3.104,4.864,3.108,4.818,0
							c-0.072-4.847-0.964-9.593-1.912-14.333C132.732,139.431,128.089,140.724,128.696,143.757L128.696,143.757z"/>
					</g>
				</g>
			</g>
		</g>
	</g>
	<path opacity="0.25" fill="#414042" d="M206.312,254.754c0,3.258-24.883,5.893-55.588,5.893c-30.707,0-55.592-2.635-55.592-5.893
		c0-3.25,24.885-5.891,55.592-5.891C181.43,248.863,206.312,251.504,206.312,254.754z"/>
</g>
</svg>
