<?xml version="1.0" encoding="utf-8"?>
<!-- Generator: Adobe Illustrator 16.0.0, SVG Export Plug-In . SVG Version: 6.00 Build 0)  -->
<!DOCTYPE svg PUBLIC "-//W3C//DTD SVG 1.1//EN" "http://www.w3.org/Graphics/SVG/1.1/DTD/svg11.dtd">
<svg version="1.1" id="Layer_1" xmlns="http://www.w3.org/2000/svg" xmlns:xlink="http://www.w3.org/1999/xlink" x="0px" y="0px"
	 width="150px" height="225px" viewBox="75 37.5 150 225" enable-background="new 75 37.5 150 225" xml:space="preserve">
<ellipse opacity="0.25" fill="#414042" cx="152.309" cy="255.581" rx="34.231" ry="2.872"/>
<g>
	<g>
		<g opacity="0.5">
			<g>
				<path fill="#E9DDCB" d="M110.82,166.764c0.162,4.9,2.175,9.451,5.831,12.752c3.037,2.742,7.607,2.271,9.816-1.265
					c1.171-1.874,1.848-4.046,2.605-6.112c0.097-0.264,0.753-1.759,0.099-0.293c0.189-0.424,0.418-0.824,0.653-1.224
					c0.752-1.274-0.895,0.918,0.119-0.086c-0.197,0.155-0.394,0.312-0.591,0.466c0.593-0.32,0.497-0.279-0.288,0.123
					c3.255-0.995,5.288-4.335,4.365-7.688c-0.884-3.215-4.431-5.36-7.688-4.365c-3.341,1.021-5.849,3.341-7.364,6.466
					c-0.655,1.353-1.182,2.782-1.692,4.194c-0.215,0.597-0.435,1.19-0.668,1.779c0.625-1.576-0.14,0.106-0.343,0.432
					c3.272-0.422,6.544-0.842,9.816-1.264c-0.465-0.42-0.894-0.85-1.312-1.314c0.729,0.81-0.413-0.76-0.44-0.807
					c-0.877-1.535,0.202,0.836-0.304-0.871c-0.503-1.7-0.053,0.886-0.113-0.922c-0.113-3.404-2.758-6.25-6.25-6.25
					C113.749,160.514,110.708,163.357,110.82,166.764L110.82,166.764z"/>
			</g>
		</g>
		<g opacity="0.5">
			<g>
				<path fill="#E9DDCB" d="M157.007,160.251c3.179,4.749,7.263,7.131,12.793,4.622c3.863-1.753,5.47-7.214,7.333-10.622
					c-3.598,0-7.195,0-10.793,0c2.653,4.196,5.604,8.329,7.279,13.037c1.757,4.94-0.578,10.428-0.799,15.476
					c-0.211,4.801,5.447,7.704,9.404,5.396c3.25-1.895,5.334-4.521,6.907-7.909c3.373-7.261-7.399-13.614-10.793-6.31
					c-0.649,1.396-1.04,2.617-2.424,3.426c3.135,1.799,6.271,3.598,9.403,5.396c0.263-5.979,2.01-11.191,0.793-17.238
					c-1.286-6.4-5.563-12.182-8.979-17.583c-2.428-3.84-8.463-4.258-10.793,0c-0.655,1.198-1.239,2.427-1.833,3.656
					c-0.314,0.654-0.648,1.299-1.003,1.935c-1.964,3.653,1.029-4.47,4.296,0.409C163.342,147.281,152.509,153.531,157.007,160.251
					L157.007,160.251z"/>
			</g>
		</g>
	</g>
	<g opacity="0.5">
		<g>
			<path fill="#E7633E" d="M141.327,199.703c1.02,9.602-5.035,18.229-3.155,27.995c0.917,4.764,8.77,4.817,9.643,0
				c1.433-7.907,3.979-15.582,7.496-22.806c-3.045-0.398-6.093-0.797-9.139-1.194c3.318,8.845,1.331,18.938,6.504,27.194
				c2.045,3.264,8.514,3.4,9.139-1.194c1.16-8.513-1.222-17.898,2-26c-2.785,0.735-5.57,1.471-8.355,2.206
				c6.003,5.281,7.512,12.804,6.048,20.47c-1.202,6.301,8.435,8.987,9.644,2.658c2.104-11.024,0.125-22.507-8.621-30.198
				c-3.018-2.656-6.938-1.357-8.355,2.206c-3.354,8.431-0.814,17.3-2,26c3.047-0.397,6.094-0.796,9.139-1.194
				c-4.514-7.203-2.543-16.937-5.496-24.806c-1.375-3.664-7.062-5.458-9.138-1.194c-3.894,7.996-6.916,16.432-8.504,25.194
				c3.214,0,6.429,0,9.643,0c-0.806-4.187,0.928-8.608,2.007-12.601c1.121-4.15,1.963-8.431,1.506-12.736
				C150.652,193.359,140.646,193.294,141.327,199.703L141.327,199.703z"/>
		</g>
	</g>
	<g opacity="0.5">
		<g>
			<path fill="#594A42" d="M161.993,130.37c-0.997,11.699-13.848,20.61-24.329,23.179c1.882,2.448,3.765,4.896,5.646,7.346
				c6.952-12.408,13.388-25.111,20.667-37.333c-3.045-0.398-6.093-0.796-9.139-1.194c0.979,6.341-6.54,12.773-10.679,16.396
				c-5.089,4.456-11.367,8.645-17.829,10.787c1.882,2.448,3.764,4.896,5.646,7.345c5.68-10.023,16.124-16.094,23.885-24.32
				c2.47-2.618,1.59-7.493-2.207-8.357c-15.318-3.488-27.05,9.664-34.979,20.964c2.878,1.682,5.756,3.365,8.635,5.047
				c5.278-7.728,10.548-15.435,16.692-22.512c5.592-6.44,13.299-14.712,22.324-15.678c-0.842-3.106-1.684-6.211-2.523-9.317
				c-9.803,6.042-21.016,9.346-30.688,15.619c-10.863,7.044-16.547,17.766-16.456,30.699c3.333,0,6.667,0,10,0
				c-0.787-17.398,15.823-37.941,33.667-39c6.396-0.379,6.463-10.306,0-10c-12.655,0.6-26.226-0.75-35.923,9.03
				c-10.14,10.227-12.631,26.421-14.898,39.975c3.214,0,6.428,0,9.643,0c-4.208-22.417,20.133-43.206,41.179-43.004
				c-0.443-3.274-0.886-6.547-1.329-9.821c-11.022,1.905-23.141-1.654-32.956,5.277c-8.924,6.302-14.007,16.767-17.904,26.643
				c-9.534,24.16-7.006,51.466,1.368,75.563c1.803,5.188,9.862,4.534,9.821-1.329c-0.196-27.992-10.019-57.246-0.846-84.67
				c1.603-4.79-4.98-8.407-8.357-4.865c-13.949,14.637-11.734,38.969-10.197,57.465c0.812,9.777,1.716,19.549,2.593,29.321
				c1.03,11.481,2.141,23.369,6.898,33.999c1.229,2.746,5.977,3.409,7.853,1.012c9.025-11.527,11.036-28.75,12.055-42.928
				c-3.106,0.841-6.211,1.684-9.317,2.523c4.364,10.183,3.056,23.039,3.727,33.869c0.396,6.387,9.917,6.496,10,0
				c0.137-10.807,2.918-21.144,4.745-31.729c1.088-6.306-8.547-9.004-9.643-2.658c-1.978,11.463-4.954,22.688-5.103,34.388
				c3.333,0,6.667,0,10,0c-0.799-12.894,0.096-26.812-5.092-38.916c-2.142-4.996-9-1.887-9.317,2.523
				c-0.43,5.984-1.336,11.902-2.569,17.773c-1.247,5.938-2.721,13.184-6.558,18.084c2.618,0.336,5.235,0.674,7.853,1.012
				c-3.98-8.895-4.648-19.381-5.533-28.952c-0.826-8.929-1.571-17.865-2.373-26.796c-0.872-9.711-1.502-19.462-0.927-29.21
				c0.486-8.228,2.082-17.524,7.976-23.708c-2.786-1.622-5.571-3.243-8.357-4.865c-9.526,28.479,0.286,58.305,0.488,87.328
				c3.274-0.443,6.547-0.887,9.821-1.329c-7.57-21.78-10.112-45.549-2.339-67.639c3.02-8.581,7.265-17.178,14.229-23.22
				c4.008-3.478,10.085-3.364,15.059-3.408c5.246-0.047,10.37-0.018,15.558-0.915c5.701-0.985,4.147-9.769-1.328-9.821
				c-28.022-0.269-56.225,26.878-50.821,55.663c0.891,4.744,8.833,4.84,9.643,0c1.91-11.419,3.807-23.434,10.409-33.216
				c6.778-10.044,20.281-7.949,30.77-8.446c0-3.333,0-6.667,0-10c-23.115,1.372-44.71,25.923-43.667,49c0.29,6.41,10.046,6.478,10,0
				c-0.078-10.97,5.03-18.283,14.247-23.769c8.96-5.333,19.052-8.434,27.942-13.914c3.918-2.414,2.695-9.876-2.522-9.317
				c-22.031,2.358-36.344,26.587-47.651,43.143c-3.66,5.358,4.971,10.269,8.635,5.047c4.989-7.111,13.663-18.651,23.688-16.369
				c-0.735-2.786-1.471-5.571-2.206-8.357c-8.41,8.916-19.276,15.451-25.449,26.346c-2.069,3.652,1.348,8.771,5.646,7.346
				c9.012-2.987,17.188-8.719,24.15-15.062c6.9-6.288,12.84-14.704,11.342-24.421c-0.692-4.491-7.117-4.589-9.14-1.194
				c-7.279,12.222-13.715,24.926-20.667,37.333c-2.178,3.887,1.373,8.392,5.646,7.345c15.22-3.729,30.281-16.525,31.671-32.821
				C172.541,123.941,162.537,123.995,161.993,130.37L161.993,130.37z"/>
		</g>
	</g>
	<g opacity="0.5">
		<g>
			<path fill="#594A42" d="M170.839,133.699c2.425,11.411,9.272,20.973,14.504,31.193c2.179,4.256,9.873,2.463,9.317-2.522
				c-0.784-7.038-3.057-13.15-7.303-18.839c-4.311-5.772-9.812-10.524-14.047-16.352c-0.996,2.448-1.992,4.896-2.988,7.345
				c34.213-7.385,23.308,54.925,18.517,72.516c3.272,0.442,6.548,0.886,9.821,1.329c-0.424-18.303,5.65-36.066,0.424-54.191
				c-4.716-16.351-18.932-26.401-28.439-39.665c-1.438,2.508-2.877,5.016-4.316,7.523c18.203-2.237,26.007,14.398,29.665,29.562
				c3.831,15.879,4.642,34.018,1.514,50.109c3.272,0.443,6.548,0.886,9.821,1.329c-1.572-19.371-0.561-38.966-5.155-57.997
				c-2.034-8.423-5.378-17.242-11.153-23.815c-5.031-5.725-13.361-9.593-15.203-17.518c-1.164,2.05-2.328,4.1-3.492,6.15
				c8.133-1.825,13.131,5.257,16.434,11.63c4.366,8.423,6.438,18.169,7.96,27.463c4.591,28.02-2.433,56.183-3.979,84.145
				c3.272-0.443,6.548-0.886,9.821-1.328c-5.324-13.218-8.513-26.972-12.076-40.728c-1.426-5.501-9.834-4.304-9.821,1.329
				c0.024,12.6,0.312,24.795-3.745,36.896c3.214,0,6.43,0,9.643,0c-1.892-11.324-4.35-21.938-9.912-32.087
				c-2.305-4.204-9.726-2.511-9.317,2.523c0.847,10.456,6.294,20.771,4.845,31.337c-0.865,6.303,8.77,9.023,9.643,2.658
				c1.656-12.069-3.534-22.236-4.486-33.995c-3.105,0.841-6.212,1.683-9.316,2.522c5.131,9.361,7.162,19.268,8.904,29.698
				c0.877,5.25,8.211,4.271,9.643,0c4.332-12.92,4.131-26.101,4.104-39.556c-3.273,0.443-6.548,0.886-9.82,1.328
				c3.562,13.757,6.752,27.511,12.075,40.728c2.07,5.142,9.495,4.572,9.821-1.329c1.703-30.785,8.675-60.916,2.755-91.674
				c-3.362-17.468-12.608-46.416-35.827-41.206c-2.736,0.614-4.086,3.598-3.492,6.15c1.668,7.18,6.853,12.071,12.225,16.725
				c6.986,6.053,10.586,12.588,13.279,21.464c5.723,18.848,4.077,39.078,5.651,58.482c0.429,5.285,8.679,7.208,9.821,1.328
				c3.617-18.611,2.628-39.059-1.997-57.383c-4.711-18.669-17.099-37.616-38.824-34.945c-3.334,0.41-6.786,4.08-4.317,7.523
				c8.633,12.041,21.279,21.398,26.83,35.471c6.674,16.93-0.582,35.893-0.18,53.338c0.13,5.607,8.316,6.854,9.82,1.328
				c7.086-26.014,15.119-94.731-30.816-84.815c-2.96,0.639-4.844,4.792-2.988,7.345c7.028,9.668,18.571,17.46,19.984,30.144
				c3.105-0.842,6.212-1.684,9.316-2.523c-4.842-9.46-11.252-18.25-13.496-28.806C179.143,124.734,169.502,127.41,170.839,133.699
				L170.839,133.699z"/>
		</g>
	</g>
	<g>
		<g>
			<path fill="#414042" d="M111.673,164.511c0.921,19.968,20.382,29.158,37.936,31.196c14.333,1.665,38.943-0.902,43.464-17.928
				c0.583-2.195-2.812-3.127-3.394-0.936c-3.929,14.791-25.938,16.434-38.213,15.521c-16.035-1.191-35.427-9.453-36.276-27.854
				C115.088,162.251,111.568,162.241,111.673,164.511L111.673,164.511z"/>
		</g>
	</g>
	<g>
		<g>
			<path fill="#414042" d="M142.72,232.163c-1.005,3.87-1.084,17.793-6.483,18.173c-2.25,0.158-2.266,3.68,0,3.52
				c8.93-0.627,8.255-14.513,9.876-20.756C146.684,230.9,143.289,229.969,142.72,232.163L142.72,232.163z"/>
		</g>
	</g>
	<g>
		<g>
			<path fill="#414042" d="M157.829,235.564c0.662,7.465-0.233,15.893,6.716,20.643c1.879,1.284,3.637-1.768,1.775-3.039
				c-5.537-3.784-4.451-11.732-4.973-17.604C161.148,233.322,157.629,233.305,157.829,235.564L157.829,235.564z"/>
		</g>
	</g>
	<g>
		<g>
			<path fill="#414042" d="M168.171,202.761c5.397-1.343,12.127-3.251,14.172-9.067c2.279-6.484-5.401-13.653-9.362-17.508
				c-1.625-1.582-4.117,0.903-2.487,2.488c3.476,3.383,8.54,7.873,8.616,13.146c0.072,4.936-8.432,6.689-11.873,7.548
				C165.034,199.916,165.969,203.311,168.171,202.761L168.171,202.761z"/>
		</g>
	</g>
	<g>
		<g>
			<g>
				<path fill="#414042" d="M108.925,235.025c7.799-3.137,19.141-1.127,27.312-0.17c2.251,0.264,2.226-3.26,0-3.521
					c-8.583-1.005-20.009-3.017-28.247,0.298C105.912,232.469,106.818,235.874,108.925,235.025L108.925,235.025z"/>
			</g>
		</g>
		<g>
			<g>
				<g>
					<path fill="#414042" d="M170.422,133.67c0.987,13.883-17.557,20.875-27.655,25.955c-2.028,1.02-0.246,4.055,1.775,3.038
						c11.337-5.702,30.505-13.438,29.399-28.993C173.781,131.42,170.262,131.405,170.422,133.67L170.422,133.67z"/>
				</g>
			</g>
			<g>
				<g>
					<path fill="#414042" d="M144.2,159.979c-0.877-0.584-1.288-2.533-1.835-3.436c-0.628-1.035-1.892-1.081-2.764-0.355
						c-1.718,1.427-3.209,2.914-4.528,4.713c0.921-0.118,1.842-0.236,2.763-0.355c-1.855-2.008-4.435-3.561-5.79-5.979
						c-0.536-0.957-2.004-1.19-2.763-0.355c-2.581,2.84-5.832,4.93-8.412,7.77c0.83,0,1.659,0,2.488,0
						c-1.676-1.58-3.702-2.662-5.306-4.347c-0.807-0.847-2.169-0.577-2.763,0.356c-0.933,1.467-1.795,2.85-3.032,4.096
						c-1.6,1.612,0.888,4.102,2.488,2.488c1.427-1.438,2.497-3.1,3.582-4.809c-0.921,0.119-1.842,0.237-2.763,0.356
						c1.614,1.694,3.622,2.758,5.306,4.347c0.672,0.633,1.83,0.725,2.488,0c2.581-2.84,5.832-4.929,8.412-7.77
						c-0.921-0.119-1.842-0.237-2.763-0.356c1.527,2.726,4.25,4.429,6.339,6.689c0.833,0.901,2.125,0.516,2.763-0.356
						c1.141-1.559,2.506-2.779,3.978-4.002c-0.921-0.119-1.842-0.236-2.764-0.355c1.021,1.681,1.404,3.567,3.099,4.697
						C144.318,164.279,146.078,161.23,144.2,159.979L144.2,159.979z"/>
				</g>
			</g>
			<g>
				<g>
					<path fill="#414042" d="M112.045,163.93c1.892,12.241,2.497,24.534,3.129,36.887c0.463,9.053,1.279,18.097,4.083,26.763
						c0.696,2.149,4.094,1.229,3.394-0.937c-3.002-9.278-3.621-18.928-4.097-28.605c-0.577-11.742-1.318-23.414-3.115-35.043
						C115.093,160.757,111.703,161.71,112.045,163.93L112.045,163.93z"/>
				</g>
			</g>
			<g>
				<g>
					<path fill="#414042" d="M122.219,226.572c-3.111-3.6-5.856-7.203-7.066-11.86c-1.153-4.435-1.729-8.944-3.071-13.351
						c-0.66-2.163-4.057-1.24-3.394,0.937c1.425,4.675,2.062,9.47,3.287,14.181c1.263,4.86,4.54,8.862,7.755,12.582
						C121.217,230.779,123.695,228.279,122.219,226.572L122.219,226.572z"/>
				</g>
			</g>
			<g>
				<g>
					<path fill="#414042" d="M170.484,134.138c2.275,13.721,10.033,28.915,20.442,38.229c1.687,1.509,4.183-0.973,2.488-2.488
						c-9.991-8.939-17.356-23.524-19.538-36.677C173.508,130.968,170.117,131.919,170.484,134.138L170.484,134.138z"/>
				</g>
			</g>
			<g>
				<g>
					<path fill="#414042" d="M186.596,151.991c5.408,23.989,7.271,48.759,3.444,73.137c-0.349,2.22,3.042,3.172,3.394,0.937
						c3.93-25.033,2.11-50.365-3.445-75.008C189.488,148.842,186.098,149.781,186.596,151.991L186.596,151.991z"/>
				</g>
			</g>
			<g>
				<g>
					<path fill="#414042" d="M193.434,226.062c3.303-11.14,5.219-22.479,6.68-33.988c0.283-2.247-3.237-2.221-3.521,0
						c-1.42,11.199-3.339,22.218-6.553,33.054C189.393,227.309,192.789,228.232,193.434,226.062L193.434,226.062z"/>
				</g>
			</g>
			<g>
				<g>
					<path fill="#414042" d="M167.213,96.735c-16.309-2.523-34.797-3.52-49.389,5.585c-10.983,6.854-16.382,19.027-18.654,31.325
						c-5.812,31.447,2.922,64.191,4.146,95.708c0.059,1.512,0.09,3.024,0.113,4.537c0.034,2.268,3.553,2.271,3.519,0
						c-0.458-30.715-8.112-61.303-5.355-92.073c1.149-12.823,4.971-26.038,15.254-34.501c13.333-10.974,33.533-9.65,49.432-7.189
						C168.496,100.472,169.45,97.082,167.213,96.735L167.213,96.735z"/>
				</g>
			</g>
			<g>
				<g>
					<path fill="#414042" d="M170.052,100.409c28.189-3.953,34.003,28.259,35.263,49.318c0.826,13.806-0.93,27.894-2,41.649
						c-1.16,14.886-2.196,29.778-1.838,44.72c0.056,2.266,3.574,2.271,3.521,0c-0.405-16.832,0.978-33.597,2.274-50.361
						c1.139-14.717,2.49-29.474,0.857-44.196c-1.24-11.185-3.305-23.357-9.939-32.72c-6.791-9.587-17.703-13.396-29.072-11.802
						C166.877,97.33,167.833,100.72,170.052,100.409L170.052,100.409z"/>
				</g>
			</g>
			<g>
				<g>
					<path fill="#414042" d="M172.236,235.855c8.673-0.246,18.789-1.231,27.031,1.937c2.123,0.815,3.031-2.588,0.937-3.394
						c-8.55-3.285-18.992-2.315-27.968-2.062C169.973,232.4,169.966,235.919,172.236,235.855L172.236,235.855z"/>
				</g>
			</g>
		</g>
	</g>
	<g>
		<g>
			<path fill="#414042" d="M125.734,170.21c-0.021,0.108-0.144,0.408,0.029,0.022c-0.061,0.135-0.141,0.261-0.218,0.386
				c-0.264,0.426,0.218-0.235-0.105,0.151c-0.125,0.149-0.27,0.282-0.42,0.407c-0.837,0.693-0.612,2.3,0.356,2.765
				c0.772,0.371,1.477,0.691,2.335,0.774c0.373,0.036,0.787-0.06,1.146-0.116c0.684-0.107,1.34-0.283,1.718-0.936
				c0.861-1.482,0.079-3.197-1.385-3.922c-0.859-0.426-1.898-0.238-2.407,0.631c-0.459,0.784-0.228,1.982,0.631,2.406
				c0.138,0.068,0.534,0.373,0.093,0.021c0.128,0.103,0.331,0.437,0.062,0.024c-0.16-0.244-0.18-0.682-0.031-0.936
				c0.35-0.271,0.701-0.539,1.051-0.81c-0.222,0.044-0.444,0.087-0.667,0.126c0.482-0.084-0.08-0.003-0.211-0.008
				c0.562,0.021,0.065-0.012-0.127-0.083c0.466,0.173-0.325-0.161-0.431-0.212c0.119,0.921,0.237,1.842,0.356,2.763
				c0.722-0.599,1.441-1.583,1.62-2.521c0.179-0.94-0.25-1.895-1.229-2.164C127.031,168.743,125.914,169.268,125.734,170.21
				L125.734,170.21z"/>
		</g>
	</g>
	<g>
		<g>
			<path fill="#414042" d="M173.82,174.63c-0.088-0.176-0.135-0.362-0.141-0.56c0.053-0.316,0.062-0.381,0.025-0.191
				c-0.055,0.285-0.098,0.57-0.135,0.859c-0.082,0.65,0.248,1.383,0.687,1.846c0.959,1.016,3.058,1.46,4.089,0.354
				c0.951-1.021,1.288-2.217,0.711-3.514c-0.156-0.354-0.476-0.656-0.758-0.917c-0.097-0.09-0.193-0.179-0.289-0.271
				c-0.046-0.047-0.09-0.094-0.133-0.145c0.359,0.404,0.001-0.144,0.208,0.37c-0.358-0.889-1.158-1.505-2.164-1.229
				c-0.845,0.232-1.589,1.274-1.229,2.166c0.274,0.68,0.658,1.172,1.19,1.664c0.07,0.064,0.138,0.133,0.203,0.203
				c-0.174-0.242-0.211-0.289-0.11-0.143c0.088,0.16,0.062,0.1-0.072-0.184c-0.053-0.188-0.051-0.379,0.007-0.566
				c-0.05,0.171-0.032,0.141,0.054-0.094c-0.047,0.088-0.1,0.17-0.156,0.248c0.094-0.133,0.063-0.109-0.088,0.07
				c0.415-0.173,0.829-0.345,1.244-0.517c-0.311-0.04-0.62-0.08-0.931-0.119c0.296,0.08,0.592,0.16,0.888,0.24
				c-0.355-0.188,0.057,0.155,0.125,0.368c0.027,0.302,0.042,0.355,0.045,0.166c-0.025,0.521-0.021,0.221,0.01,0.076
				c0.144-0.676,0.139-1.356-0.24-1.959c-0.51-0.812-1.561-1.129-2.407-0.633C173.646,172.695,173.311,173.816,173.82,174.63
				L173.82,174.63z"/>
		</g>
	</g>
	<g>
		<g>
			<path fill="#414042" d="M139.081,200.309c-3.89-1.223-8.116-2.486-11.027-5.496c-3.672-3.795-0.133-10.207,1.867-13.828
				c1.098-1.987-1.941-3.762-3.038-1.775c-2.703,4.893-5.235,10.462-2.82,15.945c2.234,5.072,9.335,7.057,14.082,8.547
				C140.316,204.382,141.238,200.984,139.081,200.309L139.081,200.309z"/>
		</g>
	</g>
	<g>
		<g>
			<path fill="#414042" d="M140.006,194.133c-1.772,8.605-5.349,17.062-5.649,25.918c-0.282,8.338,5.442,12.949,13.097,14.555
				c8.547,1.791,19.387,1.946,22.743-7.651c3.421-9.785-1.502-22.638-4.219-32.002c-0.586-2.019-3.734-1.158-3.146,0.866
				c2.43,8.38,5.173,17.072,4.938,25.887c-0.321,12.036-12.649,11.516-21.639,9.249c-15.878-4.005-5.083-25.729-2.979-35.953
				C143.576,192.945,140.43,192.07,140.006,194.133L140.006,194.133z"/>
		</g>
	</g>
	<g>
		<g opacity="0.5">
			<g>
				<path fill="#A7A9AC" d="M131.992,170.098c-1.309,3.287-2.534,6.547-3.333,10c-0.526,2.271,2.458,4.451,4.178,2.432
					c3.253-3.814,6.71-7.381,10.827-10.274c-1.224-0.94-2.448-1.882-3.673-2.823c-1.479,5.65-3.471,11.135-5.333,16.666
					c-0.872,2.592,2.413,3.885,4.178,2.434c1.649-1.356,3.658-1.922,5.494-2.943c-1.254-0.719-2.508-1.438-3.762-2.158
					c0.032,1.715,0.185,3.079,1.008,4.596c0.389,0.719,1.323,1.311,2.158,1.238c4.36-0.371,7.686,1.475,11.929-0.342
					c-1.14-0.299-2.28-0.598-3.42-0.896c1.056,1.734,2.079,3.129,4.289,2.742c2.331-0.406,1.633-3.674,3.866-4.259
					c-0.94-0.384-1.883-0.767-2.822-1.149c2.398,3.152,6.809,5.535,9.482,1.099c2.498-4.144,2.684-10.006,0.983-14.468
					c-1.778-4.676-6.617-5.594-11.062-6.104c-4.791-0.55-12.671,0.518-10.835-6.457c-0.804,0.612-1.607,1.225-2.411,1.836
					c3.154,0.153,5.855,1.162,8.232,3.268c2.404,2.13,5.953-1.393,3.535-3.535c-3.394-3.007-7.246-4.512-11.768-4.732
					c-1.094-0.054-2.139,0.801-2.411,1.836c-2.279,8.658,3.504,11.668,11.165,12.399c2.994,0.286,8.759-0.192,10.635,2.706
					c1.186,1.831,1.037,4.512,0.898,6.579c-0.104,1.567-0.422,5.291-2.129,3.051c-0.697-0.916-1.634-1.46-2.822-1.149
					c-1.534,0.402-2.846,1.039-3.799,2.356c-0.43,0.593-0.744,1.155-1.019,1.835c-1.021,2.539,3.541,1.652,2.308-0.376
					c-0.773-1.271-2.149-1.44-3.42-0.896c-2.717,1.16-6.5-0.59-9.406-0.342c0.72,0.412,1.439,0.824,2.158,1.237
					c-0.107-0.69-0.216-1.382-0.324-2.071c-0.036-1.916-2.09-3.089-3.762-2.158c-2.271,1.262-4.477,2.056-6.506,3.725
					c1.393,0.811,2.786,1.621,4.179,2.434c1.861-5.531,3.853-11.018,5.333-16.668c0.519-1.98-1.799-4.141-3.673-2.822
					c-4.474,3.145-8.296,6.9-11.839,11.057c1.393,0.811,2.786,1.621,4.178,2.434c0.799-3.453,2.024-6.713,3.333-10
					C138.007,168.43,133.169,167.141,131.992,170.098L131.992,170.098z"/>
			</g>
		</g>
		<g>
			<g>
				<g>
					<path fill="#414042" d="M126.526,172.096c0.123,6.26,1.38,12.411,1.515,18.666c0.022,1.025,0.837,1.872,1.876,1.877
						c13.969,0.051,27.91,1.139,41.819-0.666c1.193-0.156,2.152-1.08,1.809-2.375c-2.039-7.686-0.283-15.674-0.833-23.502
						c-0.077-1.093-0.801-1.777-1.876-1.875c-14.301-1.307-28.739-0.725-42.932,1.4c-2.386,0.357-1.369,3.972,0.997,3.617
						c13.847-2.073,27.99-2.54,41.935-1.266c-0.625-0.625-1.251-1.25-1.876-1.877c0.575,8.19-1.169,16.448,0.968,24.5
						c0.604-0.793,1.206-1.584,1.809-2.375c-13.908,1.805-27.85,0.719-41.818,0.665c0.625,0.625,1.25,1.251,1.876,1.876
						c-0.135-6.255-1.392-12.406-1.515-18.666C130.231,169.68,126.479,169.675,126.526,172.096L126.526,172.096z"/>
				</g>
			</g>
			<g>
				<g>
					<path fill="#414042" d="M140.922,165.65c1.562-3.174,2.863-6.471,4.177-9.754c0.844-2.108-2.561-3.016-3.393-0.936
						c-1.201,3.002-2.395,6.01-3.823,8.913C136.886,165.902,139.92,167.688,140.922,165.65L140.922,165.65z"/>
				</g>
			</g>
			<g>
				<g>
					<path fill="#414042" d="M142.735,158.188c3.518,0,7-0.086,10.468-0.729c2.229-0.413,1.281-3.805-0.936-3.395
						c-3.151,0.584-6.338,0.604-9.533,0.604C140.466,154.671,140.466,158.189,142.735,158.188L142.735,158.188z"/>
				</g>
			</g>
			<g>
				<g>
					<path fill="#414042" d="M150.848,156.615c3.377,2.107,5.854,5.322,8.312,8.392c1.418,1.771,3.892-0.735,2.487-2.487
						c-2.664-3.328-5.364-6.658-9.022-8.942C150.691,152.371,148.928,155.416,150.848,156.615L150.848,156.615z"/>
				</g>
			</g>
			<g>
				<g>
					<path fill="#414042" d="M153.203,169.732c-4.723-1.744-9.44,0.473-10.423,5.559c-0.977,5.053,2.265,9.684,7.142,10.936
						c5.307,1.359,10.818-1.643,11.424-7.293c0.565-5.277-3.314-9.475-8.609-9.264c-2.262,0.09-2.271,3.609,0,3.52
						c3.324-0.133,5.305,2.049,5.136,5.326c-0.202,3.943-4.306,5.012-7.525,4.187c-6.22-1.595-5.248-12.224,1.922-9.575
						C154.4,173.914,155.312,170.512,153.203,169.732L153.203,169.732z"/>
				</g>
			</g>
			<g>
				<g>
					<path fill="#414042" d="M136.706,173.896c0.631,3.16,1.222,6.299,1.271,9.53c0.034,2.267,3.553,2.271,3.519,0
						c-0.054-3.538-0.705-7.005-1.396-10.466C139.654,170.738,136.263,171.682,136.706,173.896L136.706,173.896z"/>
				</g>
			</g>
		</g>
	</g>
</g>
</svg>
