<?xml version="1.0" encoding="utf-8"?>
<!-- Generator: Adobe Illustrator 16.0.0, SVG Export Plug-In . SVG Version: 6.00 Build 0)  -->
<!DOCTYPE svg PUBLIC "-//W3C//DTD SVG 1.1//EN" "http://www.w3.org/Graphics/SVG/1.1/DTD/svg11.dtd">
<svg version="1.1" id="Layer_1" xmlns="http://www.w3.org/2000/svg" xmlns:xlink="http://www.w3.org/1999/xlink" x="0px" y="0px"
	 width="300px" height="300px" viewBox="0 0 300 300" enable-background="new 0 0 300 300" xml:space="preserve">
<g>
	<g>
		<g opacity="0.5">
			<g>
				<path fill="#E9DDCB" d="M102.572,153.753c3.502,5.255,8.148,9.595,11.662,14.795c4.861,7.196,16.829,4.843,16.806-4.552
					c-0.019-7.584,4.681-13.468,7.414-20.325c-5.798,0-11.595,0-17.393,0c2.953,7.612,6.453,15.586,7.467,23.759
					c5.905-0.799,11.81-1.599,17.715-2.397c-3.555-9.242-0.118-19.763,4.022-28.278c-5.191,0-10.383,0-15.574,0
					c5.767,9.576,6.495,21.235,12.311,30.895c2.53,4.205,8.057,5.744,12.339,3.235c4.612-2.701,5.195-7.83,3.235-12.339
					c-4.792-11.026-6.164-26.679-2.513-38.177c-5.024,1.327-10.049,2.653-15.073,3.98c10.115,12.167,14.645,28.103,24.83,40.356
					c5.864,7.056,17.651-0.479,15.073-8.774c-6.461-20.792-12.718-41.632-15.885-63.225c-5.494,2.316-10.989,4.633-16.483,6.949
					c11.109,17.504,21.063,36.465,36.824,50.362c6.869,6.057,16.979,0.216,15.073-8.775c-2.15-10.145-7.644-19.164-9.803-29.306
					c-3.697,3.698-7.396,7.396-11.094,11.094c2.748,0.792,5.189,2.51,7.629,3.965c10.016,5.972,19.081-9.625,9.104-15.575
					c-3.804-2.268-7.652-4.548-11.938-5.783c-6.929-1.996-12.486,4.556-11.094,11.094c2.158,10.143,7.652,19.161,9.803,29.306
					c5.024-2.925,10.049-5.85,15.073-8.775c-14.637-12.905-23.687-30.456-34.004-46.71c-5.81-9.155-17.918-2.83-16.483,6.949
					c3.166,21.593,9.424,42.433,15.885,63.225c5.024-2.925,10.049-5.85,15.073-8.774c-10.114-12.169-14.643-28.104-24.83-40.357
					c-4.577-5.506-13.188-1.957-15.073,3.98c-5.197,16.363-2.399,36.592,4.331,52.076c5.191-3.034,10.383-6.069,15.574-9.104
					c-5.765-9.577-6.492-21.236-12.311-30.895c-3.277-5.442-12.519-6.284-15.574,0c-6.126,12.594-11.128,28.432-5.841,42.176
					c1.462,3.801,4.382,6.621,8.696,6.621c4.457,0,9.625-4.128,9.019-9.019c-1.242-10.022-4.474-19.18-8.111-28.554
					c-3.342-8.614-14.01-8.486-17.393,0c-1.312,3.29-3.327,6.273-4.812,9.487c-2.309,4.994-3.26,10.133-3.246,15.633
					c5.602-1.518,11.204-3.034,16.806-4.552c-3.531-5.228-8.169-9.555-11.662-14.795
					C111.731,135.021,96.101,144.042,102.572,153.753L102.572,153.753z"/>
			</g>
		</g>
		<g>
			<g>
				<g>
					<path fill="#414042" d="M196.851,106.529c7.441,25.604-7.598,47.441-29.971,58.913c-16.008,8.209-45.811,14.895-58.58-2.546
						c-1.913-2.613-6.322-0.084-4.385,2.562c14.381,19.642,44.974,14.038,63.82,5.206c25.339-11.875,42.21-37.278,34.012-65.485
						C200.835,102.042,195.935,103.378,196.851,106.529L196.851,106.529z"/>
				</g>
			</g>
			<g>
				<g>
					<path fill="#414042" d="M191.428,220.311c-0.379,5.013,0.323,9.974,0.825,14.953c0.51,5.051,1.164,11.05-3.237,14.549
						c-2.563,2.037,1.056,5.605,3.59,3.59c9.458-7.518,3.137-23.006,3.9-33.092C196.753,217.043,191.674,217.066,191.428,220.311
						L191.428,220.311z"/>
				</g>
			</g>
			<g>
				<g>
					<path fill="#414042" d="M219.232,196.373c6.331-5.706,12.224-11.853,18.097-18.021c4.346-4.564,8.633-9.721,13.823-13.362
						c2.659-1.865,0.125-6.271-2.562-4.385c-5.157,3.618-9.427,8.471-13.753,13.003c-6.247,6.547-12.469,13.112-19.194,19.176
						C213.205,194.979,216.808,198.56,219.232,196.373L219.232,196.373z"/>
				</g>
			</g>
			<g>
				<g>
					<path fill="#414042" d="M195.756,163.234c7.806,0.543,16.781,1.125,23.396-3.85c7.811-5.873,9.535-17.204,10.763-26.192
						c0.437-3.201-4.455-4.582-4.896-1.35c-1.058,7.75-2.213,18.483-9.022,23.603c-5.519,4.15-13.819,3.157-20.24,2.71
						C192.486,157.929,192.508,163.008,195.756,163.234L195.756,163.234z"/>
				</g>
			</g>
			<g>
				<g>
					<path fill="#414042" d="M144.347,47.756c5.452-2.083,12.74-0.32,18.216,0.804c6.688,1.372,11.256,3.251,16.066,8.16
						c11.148,11.375,19.121,27.833,22.54,43.308c0.706,3.197,5.602,1.841,4.896-1.35c-3.745-16.953-12.659-34.134-24.819-46.542
						c-4.995-5.096-10.461-6.961-17.333-8.473c-6.292-1.384-14.665-3.191-20.916-0.804C139.97,44.016,141.282,48.926,144.347,47.756
						L144.347,47.756z"/>
				</g>
			</g>
			<g>
				<g>
					<path fill="#414042" d="M137.184,44.222c-26.507,3.243-54.633,13.608-63.046,41.483c-5.173,17.137-1.267,35.132,2.979,51.983
						c0.8,3.174,5.696,1.827,4.896-1.35c-3.815-15.146-7.255-30.73-3.759-46.307c6.141-27.368,33.836-37.661,58.93-40.731
						C140.391,48.907,140.429,43.825,137.184,44.222L137.184,44.222z"/>
				</g>
			</g>
			<g>
				<g>
					<path fill="#414042" d="M104.359,52.94c-4.568-4.483-10.001-7.831-16.325-9.118c-10.266-2.09-20.315,2.52-28.499,8.327
						c-11.811,8.379-12.857,22.192-12.21,35.631c1.201,24.953,5.438,50.606,12.082,74.646c3.179,11.499,7.018,22.799,10.577,34.182
						c2.363,7.559,5.588,16.05,4.971,24.104c-0.25,3.268,4.829,3.243,5.078,0c0.496-6.476-1.537-13.135-3.293-19.286
						c-2.791-9.77-6.132-19.381-9.126-29.089c-7.369-23.891-11.53-48.223-14.252-73.047c-1.315-12.005-3.996-29.026,4.626-39.114
						c5.869-6.868,16.203-11.678,25.189-11.768c6.793-0.068,12.882,3.5,17.592,8.123C103.107,58.826,106.699,55.237,104.359,52.94
						L104.359,52.94z"/>
				</g>
			</g>
			<g>
				<g>
					<path fill="#414042" d="M160.265,71.82c5.337,9.407-1.181,20.358-6.417,28.277c-5.87,8.879-13.212,16.637-19.812,24.952
						c-2.014,2.536,1.555,6.155,3.59,3.591c7.703-9.704,16.195-18.754,22.751-29.325c5.513-8.889,9.867-20.198,4.273-30.058
						C163.034,66.411,158.646,68.968,160.265,71.82L160.265,71.82z"/>
				</g>
			</g>
			<g>
				<g>
					<path fill="#414042" d="M133.074,126.155c-1.02-0.039-3.355-2.81-4.41-3.471c-1.101-0.689-2.889-0.312-3.474,0.911
						c-1.376,2.878-2.578,5.75-3.172,8.901c1.041-0.591,2.082-1.182,3.123-1.773c-2.973-0.994-8.042,1.267-10.392-0.268
						c-1.385-0.905-3.311-0.005-3.729,1.518c-1.273,4.625-3.034,9.088-4.312,13.711c1.243-0.506,2.486-1.012,3.729-1.518
						c-2.071-1.293-3.587-3.107-5.773-4.325c-1.821-1.014-3.605,0.313-3.82,2.192c-0.354,3.103-0.263,6.475-1.349,9.429
						c-1.133,3.08,3.776,4.396,4.896,1.35c1.237-3.365,1.127-7.252,1.53-10.779c-1.273,0.731-2.547,1.461-3.82,2.192
						c2.162,1.204,3.7,3.03,5.773,4.325c1.399,0.874,3.302,0.029,3.729-1.518c1.278-4.623,3.039-9.087,4.312-13.711
						c-1.243,0.506-2.486,1.012-3.729,1.518c3.702,2.418,7.709-0.523,11.604,0.779c1.233,0.413,2.876-0.464,3.123-1.773
						c0.515-2.733,1.461-5.18,2.66-7.688c-1.158,0.304-2.315,0.607-3.474,0.911c2.366,1.482,3.979,4.049,6.973,4.164
						C136.35,131.358,136.338,126.28,133.074,126.155L133.074,126.155z"/>
				</g>
			</g>
			<g>
				<g>
					<path fill="#414042" d="M98.2,148.5c3.146,16.635,7.56,32.97,12.895,49.034c1.027,3.092,5.932,1.767,4.896-1.35
						c-5.335-16.063-9.748-32.398-12.895-49.034C102.488,143.936,97.595,145.301,98.2,148.5L98.2,148.5z"/>
				</g>
			</g>
			<g>
				<g>
					<path fill="#414042" d="M115.735,195.578c-11.581-18.922-28.324-37.271-33.723-59.24c-0.781-3.179-5.678-1.83-4.896,1.35
						c5.524,22.48,22.392,41.104,34.234,60.453C113.057,200.928,117.449,198.379,115.735,195.578L115.735,195.578z"/>
				</g>
			</g>
			<g>
				<g>
					<path fill="#414042" d="M160.265,71.82c9.29,14.173,18.19,30.489,35.475,35.763c3.141,0.958,4.473-3.943,1.35-4.896
						c-15.82-4.828-23.964-20.499-32.439-33.429C162.862,66.532,158.464,69.073,160.265,71.82L160.265,71.82z"/>
				</g>
			</g>
			<g>
				<g>
					<path fill="#414042" d="M202.185,130.94c2.104,4.835,3.831,9.323,4.809,14.539c0.603,3.216,5.496,1.85,4.896-1.35
						c-1.06-5.651-3.042-10.515-5.32-15.751C205.266,125.382,200.892,127.97,202.185,130.94L202.185,130.94z"/>
				</g>
			</g>
			<g>
				<g>
					<path fill="#414042" d="M211.98,144.804c-0.091-15.51-2.475-31.034-5.915-46.127c-0.728-3.192-5.623-1.838-4.896,1.35
						c3.345,14.673,5.646,29.701,5.733,44.777C206.922,148.078,211.999,148.08,211.98,144.804L211.98,144.804z"/>
				</g>
			</g>
			<g>
				<g>
					<path fill="#414042" d="M74.127,126.914c-1.452,13.358-0.745,26.527,0.36,39.876c1.49,18.001,1.729,35.892,0.468,53.923
						c-0.229,3.27,4.851,3.247,5.078,0c1.235-17.667,1.056-35.213-0.381-52.855c-1.115-13.711-1.939-27.218-0.447-40.943
						C79.559,123.661,74.478,123.695,74.127,126.914L74.127,126.914z"/>
				</g>
			</g>
			<g>
				<g>
					<path fill="#414042" d="M126.44,146.346c-0.147-0.73-0.041-0.228-0.05-0.001c0.024-0.63-0.014,0.051-0.042,0.182
						c-0.048,0.224-0.119,0.442-0.19,0.66c-0.222,0.675,0.221-0.403-0.089,0.159c-0.974,1.77,0.275,3.682,2.192,3.82
						c1.001,0.072,2.039,0.157,3.008-0.178c1.284-0.444,3.175-1.433,3.399-2.864c0.438-2.794-1.741-4.471-4.298-4.671
						c-1.382-0.108-2.539,1.237-2.539,2.539c0,1.466,1.16,2.431,2.539,2.539c0.206,0.016,0.493,0.076-0.455-0.063
						c0.175,0.025,0.345,0.069,0.514,0.119c0.387,0.114-0.583-0.33-0.021,0.013c-0.617-0.375-0.77-0.982-0.664-1.653
						c0.389-0.506,0.778-1.012,1.167-1.518c-0.308,0.198-0.614,0.396-0.928,0.583c-0.137,0.083-0.277,0.156-0.42,0.228
						c0.641-0.323,0.313-0.128,0.11-0.071c-0.261,0.055-0.164,0.047,0.291-0.025c-0.147,0.018-0.297,0.015-0.445,0.016
						c-0.419,0.001-0.841-0.041-1.259-0.071c0.73,1.273,1.462,2.547,2.192,3.82c0.812-1.476,1.219-3.247,0.883-4.912
						c-0.273-1.357-1.86-2.121-3.123-1.773C126.811,143.609,126.167,144.991,126.44,146.346L126.44,146.346z"/>
				</g>
			</g>
			<g>
				<g>
					<path fill="#414042" d="M185.631,123.943c-0.646-0.776-0.86-0.981-0.641-0.615c-0.336-0.585-0.191-0.479-0.134-0.203
						c0.04,0.188,0.065,0.379,0.109,0.566c0.214,0.912,0.828,1.724,1.611,2.224c0.946,0.605,2.166,0.782,3.242,0.503
						c0.273-0.071,0.547-0.142,0.82-0.214c1.165-0.306,1.687-0.993,2.109-2.071c0.742-1.895,0.257-3.8-1.344-5.024
						c-0.444-0.339-1-0.52-1.517-0.717c-0.075-0.028-0.15-0.057-0.226-0.085c-0.448-0.169,0.595,0.269,0.162,0.07
						c-0.107-0.05-0.208-0.11-0.309-0.172c0.58,0.358,0.337,0.282,0.163,0.097c-0.947-1.009-2.635-0.955-3.59,0
						c-1.002,1.001-0.947,2.583,0,3.591c0.733,0.782,1.703,1.102,2.672,1.483c-0.795-0.313-0.279-0.116-0.095-0.007
						c0.211,0.143,0.124,0.076-0.259-0.201c0.22,0.196-0.333-0.584-0.366-0.668c0.064,0.25,0.057,0.15-0.024-0.303
						c-0.007,0.263,0.013,0.193,0.058-0.208c-0.048,0.355-0.185,0.698-0.314,1.029c0.591-0.591,1.183-1.182,1.773-1.773
						c-0.194,0.051-0.39,0.102-0.584,0.153c-0.098,0.025-0.195,0.051-0.294,0.076c-0.403,0.088-0.244,0.105,0.479,0.052
						c-0.287-0.084-0.246-0.057,0.124,0.082c0.225,0.141,0.4,0.327,0.528,0.56c-0.235-0.317,0.188,0.658,0.048,0.06
						c-0.271-1.152-0.62-1.958-1.643-2.669c-1.138-0.792-2.815-0.212-3.474,0.911C183.979,121.734,184.497,123.154,185.631,123.943
						L185.631,123.943z"/>
				</g>
			</g>
			<g>
				<g>
					<path fill="#414042" d="M158.485,172.446c3.432,11.899,5.645,24.273,10.691,35.646c3.886,8.757,10.798,15.376,20.907,13.068
						c6.469-1.478,12.133-6.098,17.05-10.301c6.055-5.174,11.025-11.224,11.876-19.361c0.695-6.653-3.184-13.367-7.202-18.312
						c-6.16-7.579-13.784-13.768-21.176-20.089c-2.294-1.962-5.642,1.354-3.33,3.33c9.728,8.319,25.383,18.757,26.98,32.618
						c0.961,8.333-6.021,14.675-11.733,19.557c-4.336,3.706-9.795,7.68-15.638,8.379c-8.631,1.033-12.86-8.755-15.312-15.343
						c-3.676-9.878-5.657-20.333-8.573-30.443C162.187,168.281,157.642,169.521,158.485,172.446L158.485,172.446z"/>
				</g>
			</g>
			<g>
				<g>
					<path fill="#414042" d="M171.297,151.116c0.573-0.646,1.26-1.172,1.828-1.821c0.877-1.001,1.244-2.063,1.393-3.371
						c0.173-1.523-1.778-3.051-3.214-2.448c-1.755,0.737-3.504,1.487-5.255,2.233c-1.274,0.543-1.543,2.394-0.911,3.474
						c0.765,1.305,2.2,1.454,3.474,0.911c1.351-0.576,2.712-1.163,4.042-1.721c-1.071-0.816-2.143-1.632-3.214-2.448
						c0.018-0.156,0.215-0.526-0.026-0.089c0.175-0.19,0.162-0.174-0.036,0.049c-0.111,0.12-0.226,0.235-0.345,0.347
						c-0.444,0.432-0.913,0.829-1.325,1.294c-0.918,1.035-1.022,2.569,0,3.591C168.641,152.051,170.378,152.151,171.297,151.116
						L171.297,151.116z"/>
				</g>
			</g>
			<g opacity="0.5">
				<g>
					<path fill="#594A42" d="M146.125,73.911c3.353,18.315-13.213,34.588-25.504,45.683c4.105,1.701,8.211,3.401,12.316,5.102
						c0.209-10.273,5.35-19.448,9.959-28.353c5.208-10.061,9.896-20.137,10.9-31.556c0.467-5.301-6.538-9.208-10.856-6.23
						c-11.995,8.271-19.484,19.503-24.593,32.987c-4.759,12.562-7.008,25.915-11.836,38.463c4.724,0.639,9.448,1.279,14.172,1.918
						c0.025-25.52,3.123-53.207,25.923-68.839c4.51-3.092,5.064-12.204-1.724-13.188c-24.793-3.591-42.33,15.176-49.493,37.22
						c-3.994,12.29-3.321,25.974-3.946,38.73c-0.771,15.699-0.945,31.489,2.127,46.974c4.638-1.278,9.276-2.558,13.914-3.836
						c-8.643-22.173-21.002-47.192-17.215-71.675c3.058-19.764,23.354-37.887,43.311-38.281c9.293-0.184,9.311-14.615,0-14.431
						c-25.477,0.504-48.316,20.285-56.044,43.993c-4.274,13.116-2.146,28.139,0.949,41.245c3.495,14.796,9.58,28.864,15.085,42.985
						c3.351,8.598,15.748,5.409,13.914-3.836c-2.467-12.44-2.307-25.224-1.843-37.844c0.414-11.246-0.043-23.35,2.15-34.406
						c3.038-15.311,14.928-35.578,33.255-32.923c-0.574-4.396-1.149-8.792-1.724-13.188c-12.949,8.878-21.868,20.814-27.154,35.557
						c-5.193,14.485-5.9,30.503-5.915,45.742c-0.009,8.61,11.367,9.208,14.172,1.918c8.257-21.458,9.21-48.629,29.798-62.826
						c-3.619-2.077-7.237-4.153-10.856-6.23c-0.897,10.206-6.452,19.435-11.037,28.353c-5.112,9.941-9.593,20.205-9.822,31.556
						c-0.134,6.583,7.817,9.164,12.316,5.102c16.897-15.252,33.663-35.43,29.215-59.723
						C158.365,60.93,144.459,64.815,146.125,73.911L146.125,73.911z"/>
				</g>
			</g>
			<g opacity="0.5">
				<g>
					<path fill="#594A42" d="M146.562,58.296c10.082,1.3,19.557,4.04,27.139,11.074c9.19,8.527,12.617,19.46,15.742,31.191
						c4.02-2.34,8.039-4.68,12.059-7.02c-6.594-6.082-12.047-13.029-17.829-19.847c-5.98-7.052-13.153-12.758-21.186-17.316
						c-8.104-4.6-15.374,7.869-7.283,12.46c15.182,8.616,23.54,23.327,36.095,34.907c5.244,4.837,13.966,0.139,12.059-7.02
						c-3.919-14.714-9.005-27.866-20.438-38.472c-10.142-9.41-23.007-12.666-36.357-14.388c-3.911-0.504-7.215,3.664-7.215,7.215
						C139.348,55.395,142.663,57.792,146.562,58.296L146.562,58.296z"/>
				</g>
			</g>
			<g opacity="0.5">
				<g>
					<path fill="#594A42" d="M90.305,55.47c-29.839,2.767-33.389,34.427-32.069,58.607c0.794,14.566,3.151,29.036,5.472,43.42
						c1.758,10.9,4.141,20.5,3.654,31.475c4.724-0.64,9.448-1.278,14.172-1.918c-1.487-10.45-5.021-20.708-7.811-30.856
						c-4.025-14.644-7.803-29.395-10.112-44.421c-1.912-12.437-2.833-25.58,1.082-36.929c1.229-3.562,4.216-7.488,7.022-9.292
						c2.324-1.493,3.604-1.892,6.95-2.602c2.481-0.526,6.148-0.494,9.466-0.263c9.292,0.646,9.229-13.789,0-14.431
						c-14.243-0.99-28.121,3.975-34.985,17.178c-6.676,12.838-6.118,28.577-4.486,42.532c1.924,16.457,5.87,32.581,10.19,48.549
						c3.061,11.317,7.112,22.731,8.77,34.371c1.194,8.395,13.83,5.815,14.172-1.918c0.436-9.829-1.696-19.895-3.24-29.551
						c-2.079-12.998-4.271-25.977-5.434-39.097c-1.041-11.752-1.552-23.961,1.438-35.127c0.634-2.364,1.297-4.069,2.045-5.587
						c1.252-2.543,1.922-3.434,3.399-5.004c2.504-2.662,6.313-4.335,10.305-4.705C99.489,69.049,99.572,54.611,90.305,55.47
						L90.305,55.47z"/>
				</g>
			</g>
			<g>
				<g opacity="0.9">
					<g>
						<path fill="#231F20" d="M174.289,208.568c12.433-8.28,23.262-18.729,36.051-26.496c-1.457-1.889-2.914-3.777-4.371-5.666
							c-9.909,9.833-20.809,18.499-31.945,26.887c1.645,1.646,3.29,3.291,4.936,4.936c6.968-11.7,21.564-15.622,32.35-22.789
							c3.855-2.562,0.247-8.813-3.641-6.23c-12.024,7.99-27.152,12.302-34.939,25.379c-1.735,2.914,1.934,7.196,4.936,4.936
							c11.626-8.756,23.062-17.75,33.406-28.016c2.902-2.88-0.841-7.81-4.371-5.666c-12.793,7.769-23.619,18.217-36.051,26.496
							C166.796,204.903,170.404,211.155,174.289,208.568L174.289,208.568z"/>
					</g>
				</g>
				<g opacity="0.9">
					<g>
						<path fill="#231F20" d="M190.49,185.707c0.5,4.445,0.595,8.076,3.475,11.691c1.05,1.318,3.027,1.214,4.371,0.564
							c2.851-1.378,4.972-3.45,6.971-5.875c1.453-1.762,1.429-4.418-0.73-5.666c-2.431-1.405-4.899-2.725-7.215-4.318
							c-2.186-1.504-5.618,0.474-5.428,3.115c0.936,12.977,0.17,25.135-5.238,37.16c2.241,0.606,4.482,1.213,6.723,1.82
							c1.475-11.433,8.877-21.254,6.572-33.199c-1.479,1.479-2.958,2.958-4.438,4.438c8.775,3.416,17.166,8.86,23.922,15.398
							c3.343,3.235,8.45-1.861,5.102-5.102c-7.704-7.457-17.124-13.369-27.105-17.254c-2.788-1.086-4.903,2.026-4.438,4.438
							c2.018,10.455-5.509,21.04-6.83,31.281c-0.454,3.518,5.292,5.002,6.723,1.82c5.965-13.264,7.26-26.424,6.223-40.801
							c-1.81,1.038-3.619,2.077-5.428,3.115c2.314,1.594,4.783,2.913,7.215,4.318c-0.244-1.889-0.487-3.777-0.73-5.666
							c-1.633,1.979-3.169,3.615-5.51,4.746c1.457,0.188,2.914,0.376,4.371,0.564c-1.389-1.743-1.126-4.502-1.361-6.59
							C197.19,181.138,189.97,181.087,190.49,185.707L190.49,185.707z"/>
					</g>
				</g>
				<g opacity="0.85">
					<g>
						<path fill="#231F20" d="M204.102,187.404c-3.162-1.975-7.645-4.193-11.326-2.144c-2.994,1.668-3.718,4.821-3.219,7.987
							c0.486,3.091,3.316,5.676,6.39,5.918c4.346,0.343,7.398-3.543,9.45-6.826c2.474-3.957-3.771-7.576-6.23-3.641
							c-0.656,1.051-1.554,2.818-2.826,3.28c0.448-0.163,0.492,0.406,0.278-0.225c-0.346-1.021,0.402-0.443-0.643-0.057
							c1.227-0.455,3.567,1.363,4.485,1.937C204.42,196.106,208.038,189.862,204.102,187.404L204.102,187.404z"/>
					</g>
				</g>
			</g>
			<g>
				<g>
					<path fill="#414042" d="M159.415,178.819c-1.948,4.819-12.36,27.397-0.821,28.615c4.299,0.453,8.909-4.415,11.622-7.044
						c7.025-6.805,12.822-15,18.363-23.014c1.868-2.701-2.536-5.236-4.385-2.562c-4.459,6.447-9.11,12.752-14.338,18.602
						c-2.79,3.121-6.212,7.165-10.236,8.729c-0.913,0.354-0.826,0.244-0.883,0.09c-0.479-1.31-0.216-2.998-0.024-4.334
						c0.871-6.104,3.305-12.058,5.599-17.732C165.54,177.132,160.626,175.824,159.415,178.819L159.415,178.819z"/>
				</g>
			</g>
		</g>
	</g>
	<path opacity="0.25" fill="#414042" d="M220.736,254.449c0,3.393-19.992,6.15-44.652,6.15s-44.65-2.758-44.65-6.15
		c0-3.404,19.99-6.154,44.65-6.154C200.746,248.295,220.736,251.045,220.736,254.449z"/>
</g>
</svg>
