<?xml version="1.0" encoding="utf-8"?>
<!-- Generator: Adobe Illustrator 16.0.0, SVG Export Plug-In . SVG Version: 6.00 Build 0)  -->
<!DOCTYPE svg PUBLIC "-//W3C//DTD SVG 1.1//EN" "http://www.w3.org/Graphics/SVG/1.1/DTD/svg11.dtd">
<svg version="1.1" id="Layer_1" xmlns="http://www.w3.org/2000/svg" xmlns:xlink="http://www.w3.org/1999/xlink" x="0px" y="0px"
	 width="155px" height="225px" viewBox="72.5 37.5 155 225" enable-background="new 72.5 37.5 155 225" xml:space="preserve">
<ellipse opacity="0.25" fill="#414042" cx="172.058" cy="224.812" rx="29.558" ry="2.688"/>
<g>
	<g opacity="0.5">
		<g>
			<path fill="#E9DDCB" d="M116.187,152.007c2.589,3.841,5.939,7.063,8.543,10.862c3.612,5.266,12.291,3.562,12.33-3.34
				c0.032-5.547,3.425-9.896,5.456-14.904c-4.253,0-8.507,0-12.761,0c2.167,5.605,4.677,11.427,5.459,17.434
				c4.333-0.586,8.665-1.173,12.997-1.759c-2.532-6.851-0.072-14.431,2.977-20.739c-3.809,0-7.618,0-11.427,0
				c4.154,7.068,4.823,15.546,9.01,22.673c4.445,7.565,14.681,0.942,11.426-6.68c-3.49-8.178-4.453-19.499-1.809-28.009
				c-3.686,0.974-7.371,1.947-11.059,2.92c7.367,8.976,10.773,20.591,18.188,29.627c4.278,5.218,12.938-0.372,11.059-6.438
				c-4.729-15.264-9.273-30.553-11.602-46.398c-4.031,1.699-8.062,3.399-12.094,5.098c8.135,12.878,15.453,26.72,26.979,36.979
				c5.002,4.452,12.508,0.148,11.059-6.438c-1.634-7.432-5.538-14.081-7.173-21.512c-2.714,2.713-5.427,5.426-8.14,8.139
				c2.012,0.63,3.791,1.844,5.59,2.918c7.349,4.382,14-7.061,6.681-11.427c-2.813-1.678-5.612-3.268-8.752-4.252
				c-5.056-1.585-9.175,3.431-8.14,8.139c1.635,7.431,5.539,14.08,7.174,21.511c3.686-2.146,7.371-4.292,11.059-6.438
				c-10.701-9.526-17.354-22.342-24.908-34.3c-4.252-6.729-13.146-2.068-12.094,5.098c2.328,15.845,6.874,31.134,11.602,46.398
				c3.687-2.146,7.373-4.292,11.06-6.438c-7.365-8.979-10.771-20.59-18.187-29.626c-3.326-4.05-9.708-1.431-11.06,2.92
				c-3.765,12.111-1.756,26.73,3.142,38.205c3.809-2.227,7.619-4.453,11.427-6.68c-4.153-7.068-4.822-15.546-9.01-22.672
				c-2.367-4.025-9.211-4.584-11.427,0c-4.517,9.347-8.081,20.732-4.311,30.936c2.397,6.484,14.023,6.127,12.997-1.76
				c-0.957-7.354-3.268-14.059-5.932-20.951c-2.456-6.354-10.252-6.188-12.761,0c-2.62,6.462-5.887,11.106-5.929,18.421
				c4.11-1.112,8.22-2.227,12.33-3.34c-2.616-3.812-5.961-7.031-8.543-10.861C122.871,138.294,111.401,144.909,116.187,152.007
				L116.187,152.007z"/>
		</g>
	</g>
	<g>
		<g>
			<g>
				<path fill="#414042" d="M185.391,117.432c5.403,18.935-5.695,34.868-22.238,43.296c-11.78,6-33.404,10.666-42.776-2.018
					c-1.411-1.909-4.646-0.055-3.217,1.881c10.68,14.452,33.076,10.312,47.016,3.771c18.574-8.715,30.69-27.313,24.808-47.922
					C188.322,114.135,184.729,115.117,185.391,117.432L185.391,117.432z"/>
			</g>
		</g>
		<g>
			<g>
				<path fill="#414042" d="M181.316,200.896c-0.438,6.136,3.672,17.172-1.801,21.646c-1.861,1.521,0.791,4.143,2.635,2.635
					c6.884-5.63,2.354-16.798,2.892-24.281C185.214,198.499,181.486,198.516,181.316,200.896L181.316,200.896z"/>
			</g>
		</g>
		<g>
			<g>
				<path fill="#414042" d="M201.734,183.361c4.41-3.979,8.541-8.232,12.644-12.525c3.412-3.57,6.749-7.597,10.802-10.475
					c1.939-1.379,0.082-4.61-1.882-3.217c-9.081,6.449-15.94,16.133-24.196,23.582C197.312,182.341,199.957,184.967,201.734,183.361
					L201.734,183.361z"/>
			</g>
		</g>
		<g>
			<g>
				<path fill="#414042" d="M184.539,159.027c5.688,0.399,12.047,0.803,16.952-2.635c5.937-4.162,7.216-12.787,8.134-19.376
					c0.327-2.348-3.262-3.361-3.592-0.99c-0.811,5.805-1.682,12.826-6.256,17.003c-3.816,3.488-10.564,2.603-15.238,2.273
					C182.141,155.135,182.156,158.861,184.539,159.027L184.539,159.027z"/>
			</g>
		</g>
		<g>
			<g>
				<path fill="#414042" d="M146.922,74.269c3.936-1.429,8.958-0.266,12.911,0.511c5.237,1.029,8.787,2.541,12.526,6.409
					c8.037,8.314,13.695,20.268,16.205,31.479c0.524,2.344,4.117,1.35,3.592-0.99c-2.873-12.839-9.627-25.894-19.106-35.069
					c-3.429-3.319-7.649-4.433-12.228-5.421c-4.549-0.982-10.371-2.152-14.89-0.51C143.692,71.49,144.659,75.091,146.922,74.269
					L146.922,74.269z"/>
			</g>
		</g>
		<g>
			<g>
				<path fill="#414042" d="M141.663,71.668c-19.358,2.382-39.744,9.783-46.17,29.996c-4.017,12.634-1.102,26.068,2.028,38.528
					c0.584,2.33,4.177,1.341,3.592-0.99c-2.762-10.999-5.216-22.263-2.808-33.585c4.326-20.337,24.816-27.942,43.358-30.223
					C144.016,75.104,144.044,71.375,141.663,71.668L141.663,71.668z"/>
			</g>
		</g>
		<g>
			<g>
				<path fill="#414042" d="M117.572,78.037c-9.08-8.884-20.568-8.449-31.008-1.914c-9.203,5.76-11.138,14.636-10.952,24.956
					c0.322,17.809,3.508,36.544,7.947,53.729c2.399,9.287,5.47,18.385,8.348,27.529c1.853,5.891,4.397,12.484,3.958,18.764
					c-0.167,2.397,3.559,2.383,3.726,0c0.318-4.556-1.009-9.168-2.215-13.511c-1.936-6.965-4.315-13.808-6.459-20.709
					c-5.431-17.478-8.529-35.173-10.62-53.333c-1.049-9.11-3.289-22.144,3.015-29.962c7.977-9.894,22.574-11.772,31.626-2.916
					C116.656,82.352,119.292,79.719,117.572,78.037L117.572,78.037z"/>
			</g>
		</g>
		<g>
			<g>
				<path fill="#414042" d="M158.581,91.939c3.819,6.954-0.819,14.776-4.667,20.637c-4.307,6.559-9.744,12.277-14.626,18.394
					c-1.482,1.857,1.135,4.512,2.634,2.634c8.522-10.678,28.293-28.225,19.876-43.544C160.641,87.954,157.424,89.833,158.581,91.939
					L158.581,91.939z"/>
			</g>
		</g>
		<g>
			<g>
				<path fill="#414042" d="M138.588,131.774c-0.866-0.077-2.407-2.011-3.242-2.55c-0.798-0.516-2.127-0.221-2.548,0.668
					c-1.006,2.124-1.864,4.212-2.328,6.528c0.764-0.434,1.527-0.867,2.291-1.301c-2.129-0.645-5.901,0.813-7.626-0.206
					c-1.04-0.614-2.414-0.042-2.736,1.113c-0.946,3.39-2.228,6.667-3.176,10.057c0.912-0.371,1.824-0.742,2.736-1.112
					c-1.504-0.982-2.65-2.27-4.235-3.177c-1.328-0.76-2.651,0.242-2.803,1.608c-0.254,2.298-0.238,4.715-0.992,6.916
					c-0.78,2.279,2.819,3.248,3.592,0.99c0.856-2.5,0.837-5.302,1.125-7.906c-0.935,0.535-1.869,1.072-2.803,1.607
					c1.599,0.916,2.722,2.188,4.235,3.176c1.02,0.666,2.424,0.002,2.736-1.112c0.949-3.39,2.23-6.667,3.176-10.057
					c-0.912,0.371-1.824,0.742-2.736,1.113c2.794,1.651,5.581-0.308,8.516,0.581c0.92,0.279,2.095-0.323,2.291-1.301
					c0.4-1.999,1.079-3.793,1.953-5.638c-0.85,0.223-1.699,0.446-2.548,0.668c1.785,1.154,2.9,2.86,5.122,3.059
					C140.982,135.713,140.961,131.986,138.588,131.774L138.588,131.774z"/>
			</g>
		</g>
		<g>
			<g>
				<path fill="#414042" d="M112.981,148.143c2.298,12.209,5.526,24.189,9.418,35.985c0.749,2.271,4.347,1.298,3.592-0.989
					c-3.891-11.797-7.119-23.777-9.418-35.986C116.129,144.793,112.539,145.795,112.981,148.143L112.981,148.143z"/>
			</g>
		</g>
		<g>
			<g>
				<path fill="#414042" d="M125.804,182.691c-8.512-13.907-20.673-27.368-24.691-43.489c-0.581-2.33-4.173-1.341-3.592,0.99
					c4.112,16.501,16.36,30.156,25.066,44.381C123.838,186.618,127.062,184.748,125.804,182.691L125.804,182.691z"/>
			</g>
		</g>
		<g>
			<g>
				<path fill="#414042" d="M158.581,91.939c6.832,10.474,13.313,22.269,25.991,26.263c2.299,0.724,3.273-2.873,0.99-3.592
					c-11.604-3.657-17.533-14.998-23.766-24.551C160.491,88.056,157.264,89.921,158.581,91.939L158.581,91.939z"/>
			</g>
		</g>
		<g>
			<g>
				<path fill="#414042" d="M189.282,135.344c1.536,3.549,2.803,6.844,3.518,10.67c0.44,2.359,4.03,1.357,3.593-0.99
					c-0.774-4.146-2.229-7.715-3.894-11.56C191.547,131.265,188.338,133.164,189.282,135.344L189.282,135.344z"/>
			</g>
		</g>
		<g>
			<g>
				<path fill="#414042" d="M196.458,145.52c-0.072-11.387-1.806-22.753-4.301-33.841c-0.527-2.343-4.118-1.35-3.593,0.99
					c2.427,10.779,4.098,21.785,4.168,32.852C192.748,147.921,196.475,147.923,196.458,145.52L196.458,145.52z"/>
			</g>
		</g>
		<g>
			<g>
				<path fill="#414042" d="M95.337,132.287c-1.056,9.753-0.575,19.361,0.222,29.111c1.083,13.259,1.24,26.425,0.308,39.703
					c-0.168,2.397,3.558,2.383,3.726,0c0.907-12.916,0.808-25.735-0.222-38.636c-0.807-10.112-1.403-20.058-0.308-30.179
					C99.321,129.899,95.593,129.925,95.337,132.287L95.337,132.287z"/>
			</g>
		</g>
		<g>
			<g>
				<path fill="#414042" d="M133.704,146.586c-0.105-0.543-0.032-0.165-0.04-0.001c0.02-0.465-0.011,0.038-0.032,0.133
					c-0.035,0.164-0.088,0.325-0.14,0.484c-0.163,0.497,0.161-0.296-0.066,0.12c-0.709,1.297,0.198,2.705,1.608,2.803
					c0.735,0.052,1.499,0.111,2.209-0.134c0.941-0.326,2.328-1.052,2.492-2.103c0.32-2.05-1.276-3.277-3.15-3.428
					c-1.014-0.082-1.863,0.909-1.863,1.861c0,1.078,0.851,1.781,1.863,1.863c0.151,0.012,0.36,0.058-0.334-0.047
					c0.128,0.021,0.252,0.053,0.376,0.088c0.283,0.084-0.428-0.24-0.016,0.012c-0.453-0.277-0.565-0.721-0.487-1.215
					c0.285-0.371,0.57-0.742,0.856-1.112c-0.225,0.146-0.45,0.29-0.679,0.428c-0.1,0.062-0.204,0.115-0.308,0.168
					c0.47-0.237,0.23-0.095,0.081-0.052c-0.191,0.04-0.12,0.033,0.213-0.02c-0.108,0.015-0.219,0.012-0.327,0.014
					c-0.309,0.001-0.618-0.028-0.926-0.051c0.536,0.935,1.072,1.869,1.608,2.804c0.596-1.091,0.891-2.38,0.653-3.607
					c-0.192-0.998-1.371-1.554-2.291-1.301C133.969,144.579,133.511,145.59,133.704,146.586L133.704,146.586z"/>
			</g>
		</g>
		<g>
			<g>
				<path fill="#414042" d="M177.143,130.196c-0.474-0.568-0.629-0.718-0.47-0.45c-0.246-0.431-0.14-0.351-0.098-0.148
					c0.028,0.138,0.047,0.278,0.079,0.416c0.154,0.669,0.606,1.265,1.181,1.631c0.694,0.444,1.59,0.573,2.38,0.37
					c0.2-0.052,0.401-0.104,0.604-0.154c0.855-0.218,1.238-0.73,1.548-1.518c0.547-1.391,0.188-2.786-0.983-3.686
					c-0.324-0.25-0.732-0.382-1.111-0.528c-0.057-0.021-0.11-0.042-0.166-0.063c-0.33-0.125,0.436,0.197,0.119,0.051
					c-0.08-0.037-0.154-0.081-0.229-0.126c0.427,0.263,0.247,0.207,0.12,0.071c-0.696-0.739-1.933-0.702-2.636,0
					c-0.732,0.733-0.694,1.896,0,2.634c0.541,0.574,1.252,0.808,1.963,1.089c-0.584-0.23-0.205-0.083-0.069-0.004
					c0.153,0.105,0.091,0.056-0.19-0.147c0.162,0.144-0.244-0.428-0.269-0.49c0.047,0.184,0.041,0.11-0.019-0.222
					c-0.006,0.192,0.008,0.142,0.041-0.153c-0.035,0.26-0.137,0.512-0.23,0.755c0.434-0.434,0.867-0.867,1.301-1.301
					c-0.145,0.036-0.285,0.072-0.43,0.109c-0.071,0.019-0.145,0.037-0.217,0.055c-0.295,0.064-0.18,0.077,0.352,0.038
					c-0.21-0.062-0.18-0.042,0.092,0.06c0.166,0.104,0.295,0.24,0.389,0.411c-0.172-0.232,0.138,0.482,0.035,0.044
					c-0.196-0.848-0.455-1.436-1.203-1.961c-0.834-0.583-2.067-0.153-2.549,0.668C175.93,128.578,176.312,129.615,177.143,130.196
					L177.143,130.196z"/>
			</g>
		</g>
		<g>
			<g>
				<path fill="#414042" d="M157.191,165.755c3.117,10.897,5.742,38.996,22.74,35.865c4.633-0.854,8.734-4.171,12.262-7.074
					c4.19-3.45,8.766-8.128,9.289-13.854c1.151-12.613-12.323-21.934-20.698-29.105c-1.683-1.441-4.14,0.991-2.443,2.443
					c7.249,6.207,18.654,13.861,19.786,24.18c0.646,5.885-4.383,10.428-8.376,13.895c-3.3,2.862-7.466,5.879-11.946,6.369
					c-6.438,0.705-9.503-7.097-11.244-11.926c-2.547-7.062-3.976-14.502-6.037-21.71
					C159.912,162.698,156.578,163.607,157.191,165.755L157.191,165.755z"/>
			</g>
		</g>
		<g>
			<g>
				<path fill="#414042" d="M166.605,150.123c0.422-0.475,0.928-0.859,1.345-1.338c0.643-0.735,0.911-1.516,1.021-2.475
					c0.07-0.631-0.404-1.305-0.923-1.607c-0.632-0.37-1.245-0.27-1.881,0c-1.138,0.48-2.274,0.963-3.412,1.445
					c-0.937,0.396-1.131,1.758-0.668,2.549c0.562,0.957,1.613,1.063,2.549,0.668c1.138-0.482,2.274-0.965,3.412-1.445
					c-0.935-0.536-1.868-1.072-2.803-1.607c0.013-0.113,0.157-0.388-0.019-0.065c0.129-0.14,0.119-0.127-0.025,0.037
					c-0.082,0.087-0.166,0.172-0.253,0.254c-0.327,0.317-0.673,0.61-0.978,0.951c-0.677,0.757-0.748,1.887,0,2.635
					C164.657,150.811,165.928,150.88,166.605,150.123L166.605,150.123z"/>
			</g>
		</g>
		<g opacity="0.5">
			<g>
				<path fill="#594A42" d="M148.205,93.465c2.34,13.507-9.669,25.287-18.753,33.491c3.012,1.248,6.024,2.495,9.036,3.743
					c0.229-7.998,4.359-15.045,7.944-21.976c3.626-7.01,6.647-14.035,7.406-21.958c0.372-3.884-4.82-6.759-7.965-4.571
					c-18.17,12.644-19.47,33.298-26.782,52.391c3.466,0.469,6.932,0.938,10.397,1.407c0.057-18.797,2.358-38.93,19.081-50.479
					c3.277-2.264,3.74-8.982-1.264-9.675c-18.058-2.5-30.65,10.71-36.162,26.734c-3.031,8.811-2.566,18.616-3.044,27.796
					c-0.621,11.912-0.815,23.854,1.464,35.616c3.403-0.938,6.805-1.877,10.208-2.814c-6.374-16.385-14.352-33.513-12.718-51.521
					c1.364-15.034,17.253-28.746,31.963-29.118c6.814-0.173,6.831-10.76,0-10.587c-18.686,0.474-34.995,14.561-41.012,31.81
					c-3.372,9.665-1.738,20.906,0.511,30.612c2.521,10.884,7.01,21.241,11.048,31.62c2.458,6.318,11.522,3.966,10.208-2.814
					c-1.76-9.084-1.663-18.373-1.325-27.584c0.293-8.001,0.071-16.527,1.421-24.424c1.981-11.599,10.82-27.025,24.624-25.115
					c-0.421-3.225-0.843-6.45-1.264-9.675c-20.113,13.888-24.255,36.626-24.325,59.618c-0.019,6.314,8.349,6.758,10.397,1.407
					c6.052-15.801,6.844-35.576,21.917-46.064c-2.655-1.524-5.31-3.047-7.965-4.571c-0.759,7.936-5.179,15.026-8.726,21.976
					c-3.541,6.938-6.399,14.083-6.625,21.958c-0.139,4.842,5.758,6.704,9.036,3.743c12.483-11.272,24.58-25.884,21.477-43.791
					C157.249,83.934,147.048,86.79,148.205,93.465L148.205,93.465z"/>
			</g>
		</g>
		<g opacity="0.5">
			<g>
				<path fill="#594A42" d="M148.544,82.001c7.501,0.992,14.409,3.048,20.039,8.291c6.66,6.202,9.122,14.252,11.381,22.759
					c2.949-1.717,5.897-3.434,8.849-5.15c-9.914-9.215-16.572-20.391-28.598-27.294c-5.931-3.405-11.261,5.744-5.343,9.142
					c11.104,6.375,17.272,17.103,26.454,25.638c3.844,3.573,10.238,0.087,8.848-5.15c-2.889-10.878-6.658-20.498-15.084-28.343
					c-7.377-6.869-16.836-9.195-26.544-10.479C141.792,70.521,141.878,81.12,148.544,82.001L148.544,82.001z"/>
			</g>
		</g>
		<g opacity="0.5">
			<g>
				<path fill="#594A42" d="M107.257,79.883C85.71,81.96,82.824,104.386,83.646,122.05c0.504,10.862,2.262,21.662,3.977,32.386
					c1.222,7.644,3.028,15.59,2.696,23.373c3.466-0.469,6.932-0.938,10.397-1.406c-1.062-7.422-3.524-14.703-5.503-21.914
					c-2.894-10.545-5.615-21.154-7.369-31.956c-1.474-9.076-2.418-19.063,0.443-27.96c2.547-7.92,9.605-9.92,17.382-9.396
					c6.818,0.459,6.774-10.13,0-10.587c-10.304-0.695-20.162,2.724-25.412,12.072c-5.094,9.071-4.769,20.613-3.714,30.616
					c1.273,12.076,4.142,23.928,7.271,35.637c2.316,8.669,5.419,17.395,6.694,26.302c0.88,6.153,10.155,4.271,10.397-1.407
					c0.304-7.127-1.202-14.406-2.311-21.412c-1.481-9.355-3.047-18.694-3.921-28.132c-1.021-11.025-3.615-36.234,12.583-37.794
					C113.989,89.821,114.053,79.229,107.257,79.883L107.257,79.883z"/>
			</g>
		</g>
		<g>
			<g opacity="0.9">
				<g>
					<path fill="#231F20" d="M168.76,192.27c9.108-6.09,17.094-13.693,26.467-19.406c-1.069-1.387-2.14-2.771-3.207-4.156
						c-7.295,7.193-15.279,13.548-23.461,19.7c1.207,1.207,2.414,2.413,3.621,3.62c5.209-8.545,15.782-11.454,23.752-16.695
						c2.84-1.866,0.189-6.452-2.672-4.57c-8.887,5.844-19.832,9.047-25.65,18.596c-1.303,2.138,1.432,5.269,3.621,3.621
						c8.537-6.422,16.916-13.018,24.531-20.528c2.137-2.106-0.621-5.732-3.207-4.156c-9.375,5.714-17.356,13.315-26.467,19.407
						C163.268,189.586,165.913,194.173,168.76,192.27L168.76,192.27z"/>
				</g>
			</g>
			<g opacity="0.9">
				<g>
					<path fill="#231F20" d="M180.656,175.518c0.298,2.931,0.342,5.586,2.127,8.041c0.88,1.211,2.242,1.668,3.621,0.949
						c2.105-1.096,3.592-2.494,5.121-4.298c1.088-1.28,1.033-3.249-0.534-4.155c-1.785-1.033-3.583-2.021-5.294-3.177
						c-1.61-1.089-4.118,0.337-3.981,2.285c0.667,9.538,0.071,18.399-3.874,27.248c1.612,0.68,3.225,1.358,4.838,2.039
						c1.197-8.586,6.514-16.118,4.94-25.048c-1.085,1.084-2.17,2.17-3.255,3.255c6.449,2.559,12.535,6.521,17.535,11.315
						c2.461,2.361,6.209-1.377,3.742-3.742c-5.701-5.47-12.535-9.77-19.871-12.678c-2.065-0.818-3.563,1.504-3.256,3.256
						c1.336,7.58-3.914,14.873-4.94,22.234c-0.374,2.68,3.501,5.036,4.837,2.039c4.354-9.764,5.337-19.339,4.597-29.92
						c-1.327,0.762-2.655,1.523-3.981,2.285c1.709,1.154,3.508,2.144,5.293,3.176c-0.18-1.387-0.357-2.771-0.535-4.156
						c-1.219,1.436-2.371,2.596-4.053,3.471c1.207,0.315,2.414,0.633,3.621,0.948c-1.256-1.729-1.197-3.345-1.403-5.37
						C185.607,172.154,180.311,172.121,180.656,175.518L180.656,175.518z"/>
				</g>
			</g>
			<g opacity="0.85">
				<g>
					<path fill="#231F20" d="M190.639,176.761c-2.283-1.401-5.617-3.116-8.281-1.585c-2.03,1.168-2.959,3.54-2.401,5.815
						c1.797,7.323,8.843,3.763,11.633-0.609c1.843-2.887-2.739-5.539-4.569-2.672c-0.541,0.847-1.067,1.72-1.904,2.312
						c-0.096,0.067,0.269,0.571,0.051-0.014c-0.362-0.972,0.355-0.216-0.529-0.105c1.15-0.144,2.436,0.877,3.332,1.429
						C190.885,183.121,193.542,178.542,190.639,176.761L190.639,176.761z"/>
				</g>
			</g>
		</g>
		<g>
			<g>
				<path fill="#414042" d="M157.863,170.434c-1.436,3.539-9.089,20.088-0.622,20.993c3.151,0.337,6.54-3.233,8.532-5.159
					c5.16-4.985,9.42-10.994,13.492-16.867c1.371-1.979-1.858-3.84-3.218-1.881c-3.276,4.728-6.694,9.348-10.536,13.635
					c-2.05,2.289-4.562,5.251-7.519,6.395c-0.673,0.26-0.604,0.178-0.646,0.062c-0.352-0.963-0.156-2.201-0.015-3.182
					c0.646-4.478,2.435-8.845,4.122-13.006C162.359,169.195,158.755,168.236,157.863,170.434L157.863,170.434z"/>
			</g>
		</g>
	</g>
</g>
</svg>
