<?xml version="1.0" encoding="utf-8"?>
<!-- Generator: Adobe Illustrator 16.0.0, SVG Export Plug-In . SVG Version: 6.00 Build 0)  -->
<!DOCTYPE svg PUBLIC "-//W3C//DTD SVG 1.1//EN" "http://www.w3.org/Graphics/SVG/1.1/DTD/svg11.dtd">
<svg version="1.1" id="Layer_1" xmlns="http://www.w3.org/2000/svg" xmlns:xlink="http://www.w3.org/1999/xlink" x="0px" y="0px"
	 width="300px" height="300px" viewBox="0 0 300 300" enable-background="new 0 0 300 300" xml:space="preserve">
<g>
	<g>
		<g opacity="0.5">
			<g>
				<path fill="#E9DDCB" d="M102.643,125.703c0.131,5.987,1.611,11.814,1.782,17.781c0.246,8.618,11.369,11.538,15.946,4.319
					c3.532-5.57,9.532-7.427,14.708-11.151c-4.19-3.222-8.38-6.443-12.57-9.664c-1.535,7.67-2.864,15.732-6.252,22.846
					c5.214,2.198,10.427,4.397,15.641,6.594c1.895-9.278,10.315-15.834,17.987-20.544c-4.292-2.463-8.584-4.926-12.876-7.389
					c-0.299,10.578-5.61,20.289-5.913,30.99c-0.269,9.486,15.26,11.918,16.809,2.275c1.978-12.315,8.41-25.953,18.088-34.064
					c-4.869-2.017-9.74-4.034-14.609-6.051c1.873,14.963-2.597,29.994-0.73,44.959c0.479,3.846,2.267,7.146,6.282,8.252
					c4.489,1.234,9.3-1.48,10.526-5.979c5.236-19.185,10.531-38.451,18.701-56.638c-5.316-1.439-10.631-2.879-15.947-4.319
					c-0.057,19.762-1.654,39.924,3.861,59.177c2.469,8.625,13.643,7.66,16.502,0c3.443-9.221,3.676-19.232,7.115-28.454
					c-4.768,1.259-9.535,2.518-14.303,3.776c1.738,2.013,2.812,4.812,3.992,7.167c4.949,9.868,19.711,1.197,14.779-8.638
					c-1.916-3.821-3.863-7.381-6.67-10.631c-4.57-5.294-12.24-1.749-14.303,3.776c-3.439,9.222-3.672,19.234-7.113,28.455
					c5.5,0,11.002,0,16.502,0c-5.076-17.727-3.301-36.429-3.248-54.628c0.023-7.998-12.324-12.38-15.947-4.319
					c-8.801,19.592-14.783,40.05-20.425,60.727c5.603,0.758,11.206,1.518,16.81,2.275c-1.867-14.965,2.604-29.996,0.73-44.959
					c-0.943-7.541-8.523-11.151-14.608-6.051c-11.612,9.733-20.109,26.803-22.488,41.617c5.603,0.758,11.206,1.516,16.809,2.273
					c0.299-10.578,5.61-20.289,5.913-30.99c0.182-6.435-7.426-10.735-12.876-7.389c-11.297,6.935-23.077,17.179-25.853,30.773
					c-1.839,9.002,11.249,15.816,15.641,6.594c4.091-8.592,6.12-17.655,7.977-26.936c1.322-6.605-5.918-14.45-12.57-9.664
					c-3.349,2.409-7.049,4.169-10.513,6.387c-4.342,2.78-7.596,6.584-10.336,10.905c5.315,1.439,10.631,2.879,15.946,4.319
					c-0.17-5.975-1.65-11.795-1.782-17.781C119.516,114.683,102.401,114.66,102.643,125.703L102.643,125.703z"/>
			</g>
		</g>
		<g opacity="0.5">
			<g>
				<path fill="#2A506C" d="M136.941,176.133c1.538,13.123-7.068,24.971-4.324,38.33c1.328,6.461,12.025,6.654,13.202,0
					c1.913-10.812,5.436-21.375,10.262-31.232c-4.172-0.545-8.342-1.09-12.513-1.635c4.651,12.045,1.675,26.027,8.911,37.236
					c2.855,4.422,11.605,4.693,12.514-1.635c1.666-11.617-1.812-24.57,2.734-35.602c-3.812,1.006-7.627,2.014-11.441,3.02
					c8.232,7.113,10.332,17.631,8.277,28.033c-1.705,8.623,11.49,12.297,13.201,3.641c2.953-14.949,0.193-30.996-11.797-41.355
					c-4.195-3.625-9.432-1.854-11.441,3.021c-4.736,11.488-1.035,23.73-2.736,35.602c4.17-0.545,8.342-1.09,12.512-1.635
					c-6.309-9.773-3.395-23.258-7.531-33.967c-1.924-4.982-9.641-7.5-12.512-1.635c-5.342,10.91-9.522,22.52-11.642,34.502
					c4.401,0,8.801,0,13.202,0c-1.121-5.455,1.143-11.332,2.559-16.537c1.602-5.889,2.972-12.029,2.254-18.152
					c-0.434-3.705-2.785-6.846-6.846-6.846C140.385,169.287,136.506,172.418,136.941,176.133L136.941,176.133z"/>
			</g>
		</g>
		<g opacity="0.5">
			<g>
				<path fill="#594A42" d="M165.232,81.199c-1.215,15.938-19.059,28.327-33.31,31.735c2.577,3.352,5.154,6.704,7.731,10.056
					c9.525-16.983,18.317-34.389,28.297-51.114c-4.172-0.545-8.342-1.09-12.514-1.635c1.375,8.249-8.398,16.913-13.773,21.712
					c-7.167,6.401-16.053,12.503-25.258,15.509c2.577,3.352,5.154,6.704,7.731,10.056c7.677-13.774,22.136-22.018,32.706-33.307
					c3.398-3.629,2.156-10.195-3.021-11.442c-20.844-5.021-37.182,13.384-47.896,28.705c3.941,2.303,7.881,4.607,11.822,6.91
					c7.326-10.723,14.629-21.438,23.204-31.219c7.551-8.612,18.046-19.864,30.212-21.068c-1.15-4.252-2.303-8.504-3.455-12.757
					c-13.231,8.202-28.398,12.653-41.516,21.057c-15.077,9.658-23.237,24.392-23.027,42.358c4.564,0,9.127,0,13.691,0
					c-0.669-12.961,5.602-25.226,13.854-34.865c8.022-9.37,19.514-17.863,32.239-18.532c8.779-0.461,8.834-14.127,0-13.691
					c-17.746,0.875-37.757-1.211-50.476,13.871c-12.494,14.816-16.004,34.665-19.105,53.224c4.401,0,8.801,0,13.202,0
					c-5.926-30.571,27.683-59.299,56.378-58.879c-0.607-4.482-1.213-8.965-1.82-13.447c-15.371,2.761-32.288-2.445-45.795,7.74
					c-11.841,8.928-18.685,22.75-23.95,36.256c-12.867,33.008-9.512,70.276,1.984,103.165c2.481,7.098,13.488,6.213,13.447-1.82
					c-0.198-38.278-13.848-78.44-1.159-115.923c2.229-6.584-6.812-11.458-11.442-6.661c-17.998,18.647-16.122,49.584-14.379,73.426
					c0.924,12.637,2.019,25.316,3.53,37.896c1.987,16.539,4.63,33.229,11.604,48.488c1.718,3.762,8.147,4.662,10.752,1.387
					c11.588-14.578,13.546-35.26,14.785-53.217c-4.252,1.152-8.504,2.305-12.757,3.455c5.925,13.211,8.961,28.719,10.02,43.1
					c0.641,8.703,13.71,8.922,13.691,0c-0.028-13.465-0.566-26.814,1.581-40.166c1.389-8.635-11.803-12.34-13.202-3.641
					c-2.354,14.639-2.102,29.041-2.07,43.807c4.564,0,9.127,0,13.691,0c-1.249-16.971-4.907-34.443-11.889-50.01
					c-3.029-6.752-12.335-2.658-12.757,3.455c-0.526,7.633-1.395,15.199-2.919,22.703c-1.42,6.992-3.309,15.111-7.856,20.832
					c3.584,0.461,7.168,0.924,10.752,1.385c-5.893-12.895-8.007-27.625-9.734-41.578c-1.45-11.707-2.371-23.507-3.326-35.265
					c-1.02-12.547-1.584-25.186-0.446-37.744c0.911-10.039,3.401-21.162,10.611-28.632c-3.814-2.22-7.628-4.44-11.442-6.661
					c-13.179,38.93,0.465,79.872,0.67,119.562c4.482-0.607,8.965-1.213,13.447-1.82c-10.312-29.5-13.877-62.017-3.419-91.989
					c4.122-11.814,9.855-23.834,19.428-32.185c5.281-4.607,12.879-4.779,19.506-4.883c7.635-0.121,15.128,0.097,22.685-1.261
					c7.811-1.403,5.67-13.337-1.82-13.447c-38.21-0.56-77.19,36.958-69.581,76.21c1.255,6.474,12.092,6.647,13.202,0
					c2.659-15.913,5.25-32.968,14.895-46.364c9.294-12.91,27.648-9.997,41.484-10.679c0-4.564,0-9.127,0-13.691
					c-31.505,1.656-61.407,35.665-59.785,67.088c0.452,8.761,13.795,8.876,13.691,0c-0.172-14.702,6.64-24.807,18.983-32.235
					c12.406-7.466,26.454-11.718,38.778-19.357c5.371-3.329,3.693-13.464-3.455-12.757c-15.498,1.533-27.788,11.97-38.006,22.983
					c-10.262,11.062-18.743,23.659-27.232,36.085c-5.01,7.332,6.814,14.071,11.822,6.91c6.736-9.63,18.793-25.698,32.435-22.413
					c-1.007-3.814-2.014-7.628-3.021-11.442c-11.455,12.234-26.5,21.103-34.846,36.078c-2.798,5.021,1.817,11.987,7.731,10.056
					c11.984-3.913,22.919-11.546,32.243-19.872c9.68-8.645,18.625-20.554,16.352-34.192c-1.02-6.116-9.715-6.323-12.513-1.635
					c-9.98,16.725-18.771,34.131-28.296,51.114c-2.997,5.344,1.887,11.454,7.731,10.056c20.697-4.95,41.67-22.734,43.361-44.937
					C179.594,72.388,165.896,72.453,165.232,81.199L165.232,81.199z"/>
			</g>
		</g>
		<g opacity="0.5">
			<g>
				<path fill="#594A42" d="M177.344,85.759c3.223,15.63,12.74,28.725,19.861,42.708c2.98,5.856,13.469,3.355,12.756-3.455
					c-1.078-10.3-4.732-19.118-11.123-27.25C193.131,90.5,186.139,84.33,180.73,76.83c-1.365,3.352-2.729,6.704-4.092,10.056
					c5.137-1.127,9.848-1.333,14.455-0.021c3.445,0.981,6.92,3.598,8.949,6.286c6.096,8.079,7.896,18.869,8.664,29.058
					c1.607,21.286-1.107,43.437-6.717,63.97c4.482,0.607,8.965,1.215,13.447,1.82c-0.689-25.908,8.414-51.181-0.246-76.67
					c-7.178-21.133-25.605-34.273-38.115-51.841c-1.971,3.434-3.941,6.867-5.912,10.301c10.773-1.367,19.311,1.431,26.52,9.283
					c7.684,8.371,11.52,20.378,14.133,31.325c2.939,12.313,4.045,25.001,4.236,37.636c0.162,10.52-0.385,21.584-2.197,30.84
					c4.482,0.607,8.965,1.213,13.447,1.82c-2.23-27.074-0.615-54.563-7.49-81.09c-3.064-11.82-7.918-23.979-16.615-32.771
					c-6.701-6.772-16.848-12.192-19.035-22.137c-1.594,2.807-3.188,5.614-4.781,8.421c4.742-1.097,8.104-0.312,12.078,2.294
					c4.182,2.74,7.455,8.054,9.912,12.648c6.191,11.573,9.145,25.011,11.287,37.858c6.832,40.978-6.809,81.386-9.088,122.24
					c4.482-0.605,8.965-1.213,13.447-1.82c-7.859-19.881-7.598-41.527-12.781-62.07c-1.908-7.562-13.445-5.865-13.445,1.82
					c-0.002,19.049,0.023,38.35-6.143,56.598c4.4,0,8.801,0,13.203,0c-2.789-17.119-4.133-34.469-12.557-50.004
					c-3.145-5.799-13.275-3.41-12.756,3.455c1.082,14.307,8.719,28.449,6.633,42.902c-0.533,3.691,0.85,7.34,4.781,8.422
					c3.252,0.895,7.887-1.082,8.42-4.781c1.148-7.951,0.639-15.42-1.076-23.256c-1.703-7.777-4.463-15.301-5.066-23.287
					c-4.252,1.152-8.504,2.305-12.758,3.455c7.746,14.287,8.613,30.994,11.176,46.734c1.174,7.211,11.236,5.818,13.203,0
					c6.535-19.342,6.629-40.045,6.631-60.238c-4.482,0.607-8.965,1.213-13.447,1.82c5.182,20.543,4.92,42.189,12.781,62.07
					c2.799,7.082,12.998,6.225,13.445-1.82c1.475-26.42,7.764-52.246,10.27-78.556c1.641-17.229,0.746-34.223-2.35-51.209
					c-4.395-24.114-16.904-66.003-49.439-58.478c-3.773,0.872-5.557,4.898-4.781,8.421c2.281,10.382,10.254,17.262,17.916,23.924
					c3.59,3.12,7.141,6.319,9.598,10.433c3.504,5.872,5.811,12.445,7.703,18.981c7.406,25.573,5.27,52.769,7.434,79.021
					c0.596,7.234,11.869,9.871,13.447,1.82c4.99-25.479,3.627-53.629-2.768-78.703c-6.482-25.425-23.426-51.482-53.127-47.713
					c-4.568,0.58-9.281,5.566-5.91,10.301c11.756,16.509,29.23,29.264,36.736,48.571c9.062,23.311-0.883,49.048-0.244,73.031
					c0.203,7.67,11.377,9.395,13.445,1.82c9.689-35.465,20.684-129.938-42.193-116.135c-4.057,0.891-6.623,6.546-4.09,10.056
					c9.545,13.235,25.543,23.899,27.361,41.272c4.252-1.152,8.504-2.304,12.758-3.455c-6.592-12.945-15.498-24.978-18.48-39.438
					C188.764,73.475,175.566,77.142,177.344,85.759L177.344,85.759z"/>
			</g>
		</g>
		<g>
			<g>
				<path fill="#414042" d="M96.337,127.942c1.147,27.438,28.238,40.097,52.281,42.753c19.466,2.15,53.146-1.344,59.169-24.583
					c0.779-3.01-3.867-4.287-4.646-1.281c-5.277,20.356-35.902,22.562-52.66,21.222c-21.783-1.738-48.276-13.025-49.325-38.11
					C101.026,124.847,96.207,124.834,96.337,127.942L96.337,127.942z"/>
			</g>
		</g>
		<g>
			<g>
				<path fill="#414042" d="M138.844,223.305c-1.057,4.244-1.312,8.564-1.593,12.912c-0.298,4.615-0.657,9.682-5.138,12.137
					c-2.725,1.492-0.294,5.652,2.432,4.16c9.802-5.371,6.676-18.812,8.945-27.928C144.241,221.57,139.594,220.291,138.844,223.305
					L138.844,223.305z"/>
			</g>
		</g>
		<g>
			<g>
				<path fill="#414042" d="M156.797,226.602c0.904,10.199-0.336,21.785,9.195,28.258c2.578,1.752,4.984-2.426,2.432-4.16
					c-7.598-5.158-6.098-16.072-6.809-24.098C161.344,223.533,156.523,223.506,156.797,226.602L156.797,226.602z"/>
			</g>
		</g>
		<g>
			<g>
				<path fill="#414042" d="M171.838,180.072c6.369,3.135,8.625,9.486,10.699,15.854c2.279,6.998,4.396,13.943,7.705,20.543
					c1.395,2.777,5.549,0.338,4.16-2.432c-3.973-7.922-5.949-16.471-9.08-24.711c-2.168-5.705-5.461-10.662-11.053-13.414
					C171.494,174.547,169.051,178.701,171.838,180.072L171.838,180.072z"/>
			</g>
		</g>
		<g>
			<g>
				<g>
					<path fill="#414042" d="M90.182,222.717c11.664-4.682,24.171,1.334,35.974,3.207c3.039,0.482,4.343-4.16,1.281-4.646
						c-12.794-2.029-25.807-8.316-38.536-3.207C86.055,219.213,87.296,223.875,90.182,222.717L90.182,222.717z"/>
				</g>
			</g>
			<g>
				<g>
					<g>
						<path fill="#414042" d="M178.193,86.45c1.035,18.934-25.118,27.95-38.912,34.423c-2.811,1.319-0.363,5.472,2.432,4.16
							c15.615-7.328,42.463-17.277,41.299-38.583C182.842,83.36,178.023,83.344,178.193,86.45L178.193,86.45z"/>
					</g>
				</g>
				<g>
					<g>
						<path fill="#414042" d="M141.231,121.344c-0.928-0.509-1.732-3.778-2.355-4.799c-0.881-1.444-2.563-1.442-3.784-0.488
							c-2.406,1.882-4.516,3.856-6.362,6.292c1.261-0.163,2.522-0.325,3.784-0.488c-2.418-2.829-6.029-5.034-7.682-8.417
							c-0.674-1.38-2.774-1.564-3.784-0.488c-3.593,3.836-8.218,6.477-11.812,10.312c1.136,0,2.271,0,3.407,0
							c-2.174-2.283-4.996-3.743-7.091-6.153c-1.079-1.24-2.97-0.716-3.784,0.488c-1.315,1.946-2.583,3.875-4.322,5.476
							c-2.29,2.109,1.126,5.508,3.407,3.407c2.032-1.872,3.535-4.172,5.075-6.451c-1.261,0.163-2.522,0.325-3.784,0.488
							c2.101,2.416,4.916,3.868,7.091,6.153c0.884,0.928,2.525,0.941,3.407,0c3.593-3.836,8.218-6.477,11.812-10.312
							c-1.261-0.163-2.522-0.325-3.784-0.488c1.868,3.822,5.722,6.218,8.435,9.393c1.108,1.296,2.921,0.649,3.784-0.488
							c1.581-2.085,3.564-3.717,5.609-5.316c-1.261-0.163-2.522-0.325-3.784-0.488c1.328,2.176,1.678,5.209,4.084,6.528
							C141.525,126.998,143.957,122.837,141.231,121.344L141.231,121.344z"/>
					</g>
				</g>
				<g>
					<g>
						<path fill="#414042" d="M97.061,124.968c2.084,16.406,2.534,32.845,2.883,49.358c0.275,13.025,0.901,26.113,4.618,38.682
							c0.879,2.973,5.529,1.707,4.646-1.281c-3.602-12.178-4.16-24.781-4.446-37.4c-0.374-16.516-0.799-32.948-2.883-49.358
							C101.493,121.929,96.67,121.891,97.061,124.968L97.061,124.968z"/>
					</g>
				</g>
				<g>
					<g>
						<path fill="#414042" d="M108.589,211.627c-4.188-5.104-7.821-10.271-9.24-16.797c-1.313-6.045-1.97-12.125-3.631-18.113
							c-0.829-2.988-5.478-1.719-4.646,1.281c1.812,6.533,2.423,13.236,4.019,19.795c1.603,6.586,5.875,12.104,10.091,17.24
							C107.154,217.436,110.542,214.008,108.589,211.627L108.589,211.627z"/>
					</g>
				</g>
				<g>
					<g>
						<path fill="#414042" d="M178.193,86.45c1.318,10.004,4.92,19.486,9.254,28.548c4.361,9.124,9.932,18.232,17.365,25.188
							c2.266,2.12,5.68-1.28,3.406-3.407c-6.834-6.395-11.738-14.582-15.947-22.863c-4.328-8.518-8.004-17.938-9.26-27.466
							C182.611,83.416,177.789,83.376,178.193,86.45L178.193,86.45z"/>
					</g>
				</g>
				<g>
					<g>
						<path fill="#414042" d="M199.639,112.146c6.812,34.85,5.293,71.883-1.285,106.648c-0.574,3.037,4.068,4.332,4.645,1.281
							c6.752-35.678,8.275-73.45,1.285-109.211C203.688,107.818,199.045,109.112,199.639,112.146L199.639,112.146z"/>
					</g>
				</g>
				<g>
					<g>
						<path fill="#414042" d="M204.928,219.428c5.48-16.713,8.865-34.041,11.562-51.395c0.473-3.037-4.17-4.344-4.646-1.281
							c-2.697,17.355-6.082,34.682-11.562,51.395C199.311,221.107,203.963,222.365,204.928,219.428L204.928,219.428z"/>
					</g>
				</g>
				<g>
					<g>
						<path fill="#414042" d="M175.162,35.691c-29.932-5.538-66.52-6.082-84.865,22.658c-7.254,11.364-10.154,25.039-11.648,38.251
							c-1.797,15.887-1.223,32.003-0.296,47.927c1.483,25.48,4.635,50.941,4.278,76.5c-0.043,3.109,4.775,3.105,4.818,0
							c0.459-32.844-4.713-65.477-5.095-98.302c-0.305-26.209,1.604-59.829,25.685-75.983c18.908-12.684,44.664-10.324,65.842-6.406
							C176.918,40.899,178.215,36.256,175.162,35.691L175.162,35.691z"/>
					</g>
				</g>
				<g>
					<g>
						<path fill="#414042" d="M178.396,40.914c17.719-2.071,32.799,7.314,39.428,23.898c6.068,15.175,7.492,32.822,7.555,49.018
							c0.078,20.257-2.115,40.689-3.006,60.932c-0.926,20.979-1.604,41.977-1.623,62.977c-0.004,3.107,4.814,3.107,4.818,0
							c0.02-22.219,0.791-44.43,1.783-66.623c0.947-21.116,3.477-42.533,2.715-63.667c-0.59-16.375-2.461-34.756-10.117-49.509
							c-8.096-15.602-24.271-23.863-41.553-21.843C175.35,36.452,175.314,41.274,178.396,40.914L178.396,40.914z"/>
					</g>
				</g>
				<g>
					<g>
						<path fill="#414042" d="M179.475,230.508c6.365,0.1,12.744,1.498,18.945,2.822c6.801,1.453,13.926,3.008,20.311,5.846
							c2.812,1.25,5.266-2.9,2.432-4.16c-6.412-2.85-13.34-4.5-20.16-6.045c-6.998-1.584-14.322-3.168-21.527-3.281
							C176.367,225.641,176.371,230.459,179.475,230.508L179.475,230.508z"/>
					</g>
				</g>
			</g>
		</g>
		<g>
			<g>
				<path fill="#414042" d="M112.852,133.01c-0.029,0.15-0.197,0.556,0.04,0.029c-0.083,0.184-0.192,0.356-0.299,0.528
					c-0.361,0.584,0.299-0.322-0.144,0.208c-0.172,0.206-0.37,0.387-0.577,0.558c-1.148,0.948-0.834,3.146,0.488,3.784
					c1.057,0.51,2.021,0.95,3.197,1.064c0.51,0.05,1.078-0.082,1.57-0.16c0.936-0.148,1.836-0.389,2.353-1.28
					c1.179-2.033,0.103-4.375-1.898-5.37c-1.176-0.584-2.6-0.325-3.296,0.864c-0.629,1.075-0.311,2.712,0.864,3.296
					c0.189,0.094,0.73,0.51,0.126,0.028c0.175,0.139,0.454,0.598,0.085,0.033c-0.219-0.335-0.245-0.933-0.042-1.283
					c0.48-0.369,0.96-0.738,1.439-1.107c-0.304,0.06-0.608,0.119-0.914,0.172c0.659-0.116-0.109-0.005-0.289-0.012
					c0.768,0.029,0.089-0.017-0.175-0.115c0.637,0.238-0.445-0.222-0.59-0.292c0.163,1.261,0.325,2.522,0.488,3.784
					c0.989-0.816,1.974-2.166,2.218-3.448c0.246-1.289-0.342-2.595-1.682-2.963C114.626,131,113.098,131.719,112.852,133.01
					L112.852,133.01z"/>
			</g>
		</g>
		<g>
			<g>
				<path fill="#414042" d="M182.797,141.797c-0.119-0.241-0.182-0.497-0.191-0.766c0.072-0.434,0.084-0.521,0.035-0.263
					c-0.074,0.392-0.133,0.781-0.182,1.178c-0.113,0.892,0.34,1.893,0.939,2.529c1.312,1.395,4.178,1.991,5.594,0.479
					c1.305-1.394,1.766-3.033,0.977-4.806c-0.209-0.474-0.654-0.902-1.037-1.255c-0.133-0.123-0.266-0.245-0.395-0.372
					c-0.062-0.063-0.123-0.129-0.182-0.197c0.49,0.554,0.004-0.196,0.285,0.506c-0.488-1.217-1.588-2.061-2.963-1.682
					c-1.158,0.318-2.172,1.743-1.682,2.963c0.373,0.931,0.9,1.607,1.629,2.28c0.096,0.089,0.188,0.182,0.277,0.277
					c0.162,0.19,0.111,0.126-0.152-0.193c0.119,0.219,0.086,0.135-0.1-0.251c-0.072-0.26-0.068-0.52,0.01-0.778
					c-0.07,0.233-0.047,0.191,0.072-0.128c-0.064,0.118-0.137,0.231-0.217,0.339c0.127-0.184,0.086-0.153-0.121,0.093
					c0.568-0.235,1.137-0.47,1.703-0.706c-0.424-0.053-0.848-0.106-1.271-0.157c0.406,0.11,0.811,0.219,1.217,0.329
					c-0.488-0.261,0.076,0.21,0.172,0.502c0.037,0.411,0.059,0.486,0.061,0.227c-0.035,0.712-0.029,0.3,0.012,0.103
					c0.195-0.925,0.189-1.858-0.33-2.684c-0.697-1.109-2.135-1.544-3.295-0.864C182.557,139.148,182.098,140.686,182.797,141.797
					L182.797,141.797z"/>
			</g>
		</g>
		<g>
			<g>
				<path fill="#414042" d="M147.287,150.911c2.468,0.355,5.154,1.515,7.652,0.814c-1.018-0.774-2.033-1.548-3.051-2.323
					c0.06,0.774,0.11,1.582-0.018,2.35c-0.066,0.398-0.188,0.785-0.321,1.166c0.11-0.312-0.495,0.619-0.121,0.188
					c-0.243,0.279,0.246-0.084,0.556-0.119c0.338,0.076,0.367,0.08,0.09,0.01c0.262,0.115,0.264,0.1,0.006-0.045
					c0.268,0.168-0.262-0.369-0.287-0.406c-0.262-0.385-0.492-0.82-0.672-1.248c-0.506-1.21-1.575-2.065-2.963-1.683
					c-1.145,0.315-2.189,1.75-1.682,2.964c1.063,2.543,3.285,6.285,6.67,5.014c3.202-1.203,3.788-5.205,3.562-8.19
					c-0.116-1.536-1.452-2.772-3.049-2.323c-0.264,0.067-0.289,0.079-0.078,0.034c-0.193,0.007-0.387,0.003-0.58-0.011
					c-0.471-0.021-0.936-0.138-1.396-0.231c-1.012-0.205-2.013-0.459-3.036-0.606c-1.299-0.187-2.583,0.299-2.963,1.682
					C145.29,149.091,145.985,150.723,147.287,150.911L147.287,150.911z"/>
			</g>
		</g>
		<g>
			<g>
				<path fill="#414042" d="M133.864,176.953c-15.168-4.799-29.023-12.885-39.406-25.076c-2.018-2.37-5.409,1.055-3.407,3.406
					c10.902,12.801,25.623,21.283,41.532,26.316C135.553,182.539,136.814,177.887,133.864,176.953L133.864,176.953z"/>
			</g>
		</g>
		<g>
			<g>
				<path fill="#414042" d="M135.125,168.502c-2.44,11.883-8.151,23.258-8.971,35.443c-0.858,12.758,9.481,18.375,20.683,20.141
					c12.135,1.914,31.364,2.783,33.602-13.145c1.939-13.795-5.945-28.436-9.75-41.318c-0.814-2.758-5.127-1.582-4.309,1.188
					c3.402,11.521,8.906,23.018,9.771,35.123c0.371,5.191-0.891,10.023-5.674,12.664c-6.555,3.619-16.708,2.086-23.716,0.98
					c-5.09-0.803-11.044-2.414-14.187-6.846c-2.451-3.455-2.214-8.107-1.584-12.082c1.674-10.562,6.292-20.486,8.443-30.961
					C140.013,166.877,135.705,165.68,135.125,168.502L135.125,168.502z"/>
			</g>
		</g>
	</g>
	<path opacity="0.25" fill="#414042" d="M209.451,253.949c0,3.012-24.887,5.457-55.594,5.457c-30.702,0-55.587-2.445-55.587-5.457
		c0-3.021,24.885-5.457,55.587-5.457C184.564,248.492,209.451,250.928,209.451,253.949z"/>
</g>
</svg>
