<?xml version="1.0" encoding="utf-8"?>
<!-- Generator: Adobe Illustrator 16.0.0, SVG Export Plug-In . SVG Version: 6.00 Build 0)  -->
<!DOCTYPE svg PUBLIC "-//W3C//DTD SVG 1.1//EN" "http://www.w3.org/Graphics/SVG/1.1/DTD/svg11.dtd">
<svg version="1.1" id="Layer_1" xmlns="http://www.w3.org/2000/svg" xmlns:xlink="http://www.w3.org/1999/xlink" x="0px" y="0px"
	 width="150px" height="225px" viewBox="75 37.5 150 225" enable-background="new 75 37.5 150 225" xml:space="preserve">
<g>
	<g opacity="0.5">
		<g>
			<path fill="#E9DDCB" d="M110.604,121.26c0.116,4.372,1.149,8.629,1.299,12.987c0.216,6.321,8.253,8.39,11.646,3.153
				c2.616-4.033,6.948-5.452,10.745-8.146c-3.06-2.353-6.121-4.705-9.181-7.058c-1.127,5.618-2.122,11.463-4.565,16.689
				c3.808,1.605,7.615,3.211,11.423,4.815c1.491-6.81,7.479-11.501,13.134-15.005c-3.135-1.799-6.27-3.598-9.404-5.396
				c-0.293,7.727-4.022,14.83-4.318,22.637c-0.264,6.95,11.108,8.676,12.276,1.662c1.508-9.054,6.14-18.863,13.211-24.88
				c-3.556-1.473-7.112-2.946-10.669-4.419c1.304,10.936-1.836,21.896-0.533,32.833c0.79,6.638,10.289,8.947,12.275,1.661
				c3.826-14.018,7.713-28.067,13.656-41.365c-3.882-1.051-7.765-2.103-11.646-3.154c-0.054,14.453-1.153,29.13,2.821,43.22
				c1.771,6.285,10.002,5.613,12.053,0c2.468-6.75,2.729-14.028,5.193-20.779c-3.48,0.92-6.963,1.839-10.444,2.758
				c1.259,1.495,2.049,3.5,2.919,5.229c3.625,7.2,14.406,0.87,10.793-6.31c-1.407-2.797-2.852-5.357-4.874-7.758
				c-3.286-3.899-8.979-1.255-10.444,2.758c-2.468,6.75-2.729,14.029-5.195,20.78c4.019,0,8.035,0,12.054,0
				c-3.658-12.972-2.425-26.588-2.374-39.898c0.021-5.838-9.014-9.047-11.646-3.154c-6.402,14.323-10.794,29.245-14.916,44.352
				c4.092,0.553,8.185,1.106,12.276,1.66c-1.303-10.936,1.837-21.896,0.533-32.833c-0.654-5.491-6.263-8.17-10.669-4.419
				c-8.499,7.231-14.609,19.488-16.426,30.396c4.092,0.554,8.185,1.106,12.277,1.66c0.293-7.726,4.022-14.828,4.318-22.637
				c0.179-4.698-5.458-7.842-9.404-5.396c-8.332,5.162-16.694,12.496-18.879,22.476c-1.444,6.598,8.285,11.525,11.423,4.814
				c2.948-6.303,4.462-12.881,5.825-19.673c0.974-4.852-4.312-10.513-9.181-7.058c-5.776,4.098-11.215,6.439-15.229,12.632
				c3.882,1.053,7.764,2.104,11.646,3.154c-0.149-4.361-1.183-8.617-1.299-12.987C122.892,113.215,110.391,113.195,110.604,121.26
				L110.604,121.26z"/>
		</g>
	</g>
	<g opacity="0.5">
		<g>
			<path fill="#2A506C" d="M135.652,158.089c1.02,9.601-5.035,18.229-3.155,27.996c0.917,4.765,8.77,4.817,9.643,0
				c1.433-7.907,3.979-15.583,7.496-22.806c-3.046-0.398-6.093-0.797-9.139-1.194c3.318,8.845,1.332,18.938,6.504,27.194
				c2.045,3.264,8.513,3.4,9.14-1.194c1.158-8.511-1.223-17.897,2-26c-2.785,0.735-5.572,1.472-8.356,2.206
				c6.003,5.282,7.512,12.803,6.048,20.469c-1.203,6.301,8.434,8.988,9.643,2.658c2.105-11.023,0.125-22.505-8.619-30.197
				c-3.02-2.656-6.938-1.357-8.356,2.206c-3.353,8.431-0.815,17.3-2,26c3.046-0.397,6.093-0.796,9.14-1.194
				c-4.515-7.203-2.545-16.937-5.497-24.806c-1.375-3.665-7.062-5.457-9.139-1.194c-3.894,7.996-6.917,16.432-8.504,25.194
				c3.214,0,6.429,0,9.643,0c-0.806-4.186,0.928-8.608,2.007-12.601c1.123-4.15,1.963-8.432,1.506-12.737
				C144.979,151.745,134.972,151.68,135.652,158.089L135.652,158.089z"/>
		</g>
	</g>
	<g opacity="0.5">
		<g>
			<path fill="#594A42" d="M156.318,88.756c-0.998,11.699-13.848,20.61-24.33,23.179c1.882,2.448,3.764,4.896,5.646,7.345
				c6.952-12.407,13.389-25.111,20.667-37.333c-3.046-0.398-6.093-0.796-9.139-1.194c0.978,6.341-6.54,12.773-10.679,16.396
				c-5.089,4.456-11.367,8.645-17.829,10.787c1.882,2.448,3.764,4.896,5.646,7.345c5.68-10.024,16.124-16.094,23.885-24.321
				c2.47-2.618,1.589-7.493-2.206-8.357c-15.319-3.488-27.051,9.664-34.98,20.964c2.878,1.682,5.756,3.365,8.635,5.047
				c5.278-7.729,10.548-15.435,16.692-22.512c5.592-6.44,13.299-14.712,22.323-15.678c-0.84-3.106-1.683-6.211-2.522-9.317
				c-9.803,6.042-21.016,9.346-30.688,15.619c-10.863,7.044-16.547,17.766-16.456,30.699c3.333,0,6.667,0,10,0
				c-0.787-17.398,15.823-37.941,33.667-39c6.397-0.379,6.463-10.306,0-10c-12.654,0.6-26.226-0.75-35.922,9.03
				c-10.14,10.227-12.631,26.421-14.898,39.975c3.214,0,6.428,0,9.643,0c-4.208-22.417,20.133-43.206,41.179-43.004
				c-0.443-3.274-0.887-6.547-1.329-9.821c-11.022,1.905-23.141-1.654-32.956,5.277c-8.924,6.302-14.007,16.767-17.904,26.643
				c-9.535,24.16-7.006,51.466,1.368,75.564c1.803,5.188,9.862,4.535,9.821-1.329c-0.196-27.992-10.019-57.247-0.846-84.671
				c1.603-4.79-4.98-8.407-8.357-4.865c-13.084,13.729-11.772,36.092-10.507,53.582c1.516,20.947,2.299,43.772,11.058,63.144
				c1.237,2.735,5.974,3.419,7.853,1.012c8.409-10.771,9.877-25.663,10.798-38.868c-3.106,0.842-6.211,1.684-9.317,2.523
				c4.305,9.688,6.517,20.949,7.317,31.477c0.483,6.352,10.018,6.521,10,0c-0.027-9.839-0.395-19.58,1.154-29.338
				c1.001-6.307-8.633-9.014-9.643-2.658c-1.698,10.693-1.541,21.209-1.512,31.996c3.333,0,6.667,0,10,0
				c-0.945-12.429-3.61-25.105-8.683-36.523c-2.198-4.945-9.007-1.928-9.317,2.523c-0.703,10.086-1.382,23.489-7.87,31.799
				c2.618,0.336,5.235,0.674,7.853,1.012c-7.664-16.948-7.97-37.215-9.489-55.496c-1.242-14.943-4.013-37.164,7.375-49.111
				c-2.786-1.622-5.571-3.243-8.357-4.865c-9.526,28.479,0.286,58.306,0.488,87.329c3.274-0.442,6.547-0.886,9.821-1.329
				c-7.569-21.781-10.112-45.55-2.338-67.64c3.02-8.581,7.265-17.178,14.229-23.22c4.008-3.479,10.085-3.364,15.059-3.408
				c5.246-0.047,10.37-0.018,15.56-0.915c5.701-0.985,4.146-9.769-1.33-9.821c-28.021-0.269-56.225,26.878-50.82,55.663
				c0.891,4.744,8.833,4.84,9.643,0c1.91-11.419,3.807-23.434,10.409-33.216c6.778-10.044,20.281-7.949,30.771-8.446
				c0-3.333,0-6.667,0-10c-23.115,1.372-44.71,25.923-43.667,49c0.29,6.41,10.046,6.477,10,0
				c-0.078-10.97,5.03-18.283,14.248-23.769c8.959-5.333,19.051-8.434,27.943-13.914c3.917-2.414,2.695-9.876-2.523-9.317
				c-22.03,2.358-36.343,26.587-47.65,43.143c-3.66,5.358,4.971,10.269,8.635,5.047c4.989-7.111,13.663-18.651,23.688-16.369
				c-0.735-2.786-1.471-5.571-2.206-8.357c-8.41,8.916-19.276,15.451-25.449,26.346c-2.069,3.652,1.348,8.77,5.646,7.345
				c9.012-2.987,17.188-8.719,24.15-15.062c6.901-6.288,12.841-14.704,11.343-24.421c-0.692-4.491-7.117-4.589-9.14-1.194
				c-7.279,12.222-13.715,24.926-20.667,37.333c-2.178,3.887,1.373,8.392,5.646,7.345c15.22-3.729,30.282-16.525,31.67-32.821
				C166.866,82.327,156.861,82.38,156.318,88.756L156.318,88.756z"/>
		</g>
	</g>
	<g opacity="0.5">
		<g>
			<path fill="#594A42" d="M165.164,92.085c2.425,11.411,9.273,20.973,14.504,31.194c2.178,4.255,9.873,2.462,9.316-2.523
				c-0.783-7.038-3.057-13.15-7.303-18.839c-4.31-5.772-9.811-10.524-14.047-16.352c-0.996,2.448-1.992,4.896-2.988,7.345
				c34.215-7.385,23.308,54.925,18.518,72.517c3.273,0.443,6.548,0.886,9.82,1.329c-0.424-18.303,5.652-36.066,0.425-54.192
				c-4.716-16.351-18.931-26.401-28.438-39.665c-1.439,2.508-2.879,5.016-4.318,7.523c18.203-2.237,26.008,14.398,29.666,29.561
				c3.83,15.88,4.642,34.018,1.514,50.109c3.273,0.443,6.548,0.887,9.82,1.329c-1.571-19.37-0.56-38.964-5.154-57.996
				c-2.034-8.423-5.378-17.242-11.154-23.815c-5.031-5.725-13.361-9.593-15.203-17.518c-1.164,2.05-2.328,4.1-3.492,6.15
				c8.134-1.825,13.131,5.257,16.435,11.63c4.366,8.423,6.438,18.169,7.96,27.463c4.889,29.831-5.018,59.104-6.723,88.752
				c3.272-0.442,6.548-0.886,9.82-1.329c-5.681-14.544-5.591-30.312-9.332-45.333c-1.379-5.532-9.82-4.278-9.822,1.329
				c-0.002,13.934-0.022,27.98-4.487,41.337c3.214,0,6.429,0,9.644,0c-2.025-12.53-3.07-25.14-9.17-36.526
				c-2.273-4.246-9.724-2.483-9.318,2.522c0.848,10.456,6.295,20.771,4.846,31.338c-0.864,6.304,8.77,9.023,9.643,2.658
				c1.656-12.069-3.535-22.235-4.486-33.996c-3.105,0.841-6.213,1.683-9.317,2.522c5.613,10.479,6.3,22.615,8.162,34.14
				c0.851,5.259,8.22,4.26,9.644,0c4.731-14.159,4.842-29.222,4.846-43.995c-3.273,0.443-6.549,0.887-9.821,1.329
				c3.741,15.021,3.651,30.789,9.333,45.333c2.03,5.197,9.484,4.527,9.82-1.329c1.119-19.45,5.722-38.466,7.543-57.842
				c1.185-12.598,0.443-25.036-1.854-37.446c-3.265-17.643-12.427-47.493-36.018-42.2c-2.736,0.614-4.086,3.598-3.492,6.15
				c1.668,7.18,6.853,12.071,12.224,16.725c6.986,6.053,10.586,12.588,13.28,21.464c5.722,18.847,4.077,39.078,5.651,58.481
				c0.429,5.286,8.679,7.208,9.82,1.329c3.618-18.611,2.629-39.058-1.996-57.384c-4.711-18.669-17.1-37.615-38.824-34.945
				c-3.334,0.41-6.786,4.08-4.317,7.523c8.632,12.041,21.279,21.398,26.829,35.472c6.675,16.929-0.582,35.893-0.18,53.338
				c0.131,5.607,8.316,6.854,9.822,1.329c7.084-26.015,15.119-94.733-30.817-84.817c-2.96,0.639-4.845,4.792-2.988,7.345
				c7.028,9.668,18.571,17.46,19.983,30.144c3.105-0.841,6.213-1.683,9.318-2.523c-4.843-9.46-11.254-18.25-13.496-28.806
				C173.467,83.12,163.827,85.795,165.164,92.085L165.164,92.085z"/>
		</g>
	</g>
	<g>
		<g>
			<path fill="#414042" d="M105.999,122.896c0.921,19.968,20.382,29.159,37.936,31.197c14.333,1.664,38.943-0.903,43.463-17.928
				c0.584-2.196-2.811-3.127-3.393-0.937c-3.929,14.791-25.938,16.435-38.213,15.521c-16.035-1.191-35.427-9.453-36.276-27.854
				C109.413,120.637,105.894,120.627,105.999,122.896L105.999,122.896z"/>
		</g>
	</g>
	<g>
		<g>
			<path fill="#414042" d="M137.045,192.549c-1.32,5.325,0.573,15.266-4.917,18.294c-1.987,1.097-0.212,4.136,1.776,3.039
				c7.152-3.946,4.879-13.726,6.533-20.397C140.983,191.281,137.59,190.348,137.045,192.549L137.045,192.549z"/>
		</g>
	</g>
	<g>
		<g>
			<path fill="#414042" d="M150.154,194.951c0.663,7.464-0.233,15.893,6.716,20.641c1.879,1.283,3.637-1.768,1.774-3.039
				c-5.537-3.781-4.451-11.732-4.972-17.602C153.475,192.709,149.954,192.689,150.154,194.951L150.154,194.951z"/>
		</g>
	</g>
	<g>
		<g>
			<path fill="#414042" d="M161.141,160.971c4.894,2.493,6.474,7.403,8.053,12.326c1.563,4.871,3.115,9.66,5.392,14.255
				c1.008,2.034,4.042,0.251,3.039-1.774c-4.371-8.826-4.964-22.879-14.707-27.846C160.898,156.904,159.118,159.939,161.141,160.971
				L161.141,160.971z"/>
		</g>
	</g>
	<g>
		<g>
			<g>
				<path fill="#414042" d="M101.502,192.114c8.565-3.343,17.625,0.961,26.277,2.346c2.219,0.354,3.171-3.035,0.936-3.394
					c-9.403-1.506-18.781-6.002-28.148-2.346C98.477,189.537,99.385,192.939,101.502,192.114L101.502,192.114z"/>
			</g>
		</g>
		<g>
			<g>
				<g>
					<path fill="#414042" d="M165.781,92.592c0.609,13.866-18.227,20.368-28.418,25.14c-2.054,0.961-0.267,3.995,1.775,3.038
						c11.514-5.391,30.848-12.574,30.162-28.178C169.201,90.332,165.682,90.322,165.781,92.592L165.781,92.592z"/>
				</g>
			</g>
			<g>
				<g>
					<path fill="#414042" d="M138.787,118.077c-0.748-0.53-1.224-2.631-1.719-3.503c-0.612-1.076-1.896-1.036-2.764-0.356
						c-1.632,1.279-3.099,2.594-4.374,4.237c0.83,0,1.659,0,2.488,0c-1.804-2.065-4.32-3.684-5.609-6.146
						c-0.522-0.998-2.002-1.148-2.763-0.356c-2.66,2.767-5.968,4.763-8.628,7.53c0.83,0,1.659,0,2.488,0
						c-1.631-1.627-3.622-2.763-5.181-4.495c-0.802-0.891-2.161-0.536-2.763,0.356c-0.962,1.424-1.907,2.811-3.156,4.001
						c-1.646,1.568,0.846,4.053,2.488,2.488c1.471-1.402,2.571-3.034,3.706-4.713c-0.921,0.119-1.842,0.237-2.763,0.356
						c1.566,1.739,3.542,2.859,5.181,4.495c0.668,0.667,1.823,0.692,2.488,0c2.66-2.767,5.968-4.763,8.628-7.53
						c-0.921-0.119-1.842-0.237-2.763-0.356c1.445,2.761,4.139,4.544,6.159,6.858c0.575,0.658,1.926,0.724,2.488,0
						c1.275-1.643,2.742-2.958,4.374-4.237c-0.921-0.119-1.842-0.237-2.763-0.356c0.994,1.749,1.294,3.57,2.982,4.765
						C138.868,122.43,140.623,119.376,138.787,118.077L138.787,118.077z"/>
				</g>
			</g>
			<g>
				<g>
					<path fill="#414042" d="M106.527,120.725c1.507,11.985,1.853,23.986,2.106,36.048c0.199,9.522,0.682,19.056,3.373,28.248
						c0.636,2.172,4.032,1.246,3.394-0.937c-2.608-8.907-3.035-18.088-3.248-27.312c-0.277-12.063-0.598-24.06-2.106-36.048
						C109.766,118.504,106.244,118.477,106.527,120.725L106.527,120.725z"/>
				</g>
			</g>
			<g>
				<g>
					<path fill="#414042" d="M114.946,184.014c-3.011-3.688-5.628-7.378-6.707-12.066c-1.027-4.465-1.477-8.99-2.694-13.432
						c-0.6-2.187-3.995-1.258-3.394,0.936c1.292,4.713,1.795,9.523,2.887,14.267c1.126,4.896,4.312,8.978,7.419,12.785
						C113.894,188.261,116.368,185.756,114.946,184.014L114.946,184.014z"/>
				</g>
			</g>
			<g>
				<g>
					<path fill="#414042" d="M165.846,93.06c1.887,13.771,9.242,29.181,19.379,38.778c1.646,1.559,4.14-0.926,2.488-2.488
						c-9.745-9.226-16.663-24.005-18.477-37.226C168.932,89.884,165.54,90.841,165.846,93.06L165.846,93.06z"/>
				</g>
			</g>
			<g>
				<g>
					<path fill="#414042" d="M181.445,111.359c4.938,25.489,3.845,52.461-0.938,77.888c-0.418,2.218,2.974,3.164,3.394,0.937
						c4.91-26.098,6.009-53.604,0.938-79.76C184.408,108.197,181.018,109.142,181.445,111.359L181.445,111.359z"/>
				</g>
			</g>
			<g>
				<g>
					<path fill="#414042" d="M185.309,189.714c3.983-12.219,6.465-24.854,8.444-37.534c0.347-2.22-3.044-3.173-3.394-0.937
						c-1.979,12.681-4.461,25.315-8.444,37.534C181.209,190.941,184.607,191.861,185.309,189.714L185.309,189.714z"/>
				</g>
			</g>
			<g>
				<g>
					<path fill="#414042" d="M163.566,55.518c-16.243-2.984-34.676-4.462-49.521,4.23c-11.166,6.537-16.886,18.597-19.5,30.811
						c-6.694,31.264,1.126,64.255,1.461,95.789c0.016,1.514,0.005,3.026-0.015,4.539c-0.03,2.271,3.489,2.269,3.519,0
						c0.407-30.715-6.381-61.506-2.759-92.187c1.509-12.78,5.766-26.246,16.507-34.22c13.834-10.27,33.482-8.489,49.375-5.569
						C164.85,59.318,165.797,55.927,163.566,55.518L163.566,55.518z"/>
				</g>
			</g>
			<g>
				<g>
					<path fill="#414042" d="M165.93,59.334c29.943-3.342,34.362,31.911,34.313,54.032c-0.032,14.743-1.572,29.589-2.22,44.321
						c-0.664,15.123-1.141,30.258-1.16,45.396c-0.002,2.271,3.518,2.271,3.521,0c0.021-16.354,0.589-32.701,1.321-49.037
						c0.699-15.61,2.581-31.445,1.924-47.071c-0.499-11.861-1.896-25.288-7.707-35.855c-6.084-11.066-17.593-16.69-29.992-15.306
						C163.7,56.064,163.676,59.585,165.93,59.334L165.93,59.334z"/>
				</g>
			</g>
			<g>
				<g>
					<path fill="#414042" d="M166.721,197.807c9.284,0.195,20.155,2.603,28.67,6.328c2.059,0.9,3.852-2.131,1.775-3.039
						c-9.135-3.998-20.458-6.598-30.445-6.809C164.449,194.239,164.454,197.759,166.721,197.807L166.721,197.807z"/>
				</g>
			</g>
		</g>
	</g>
	<g>
		<g>
			<path fill="#414042" d="M118.059,126.597c-0.021,0.109-0.144,0.407,0.029,0.022c-0.061,0.135-0.141,0.261-0.218,0.386
				c-0.264,0.427,0.218-0.235-0.105,0.151c-0.125,0.151-0.27,0.283-0.42,0.408c-0.836,0.693-0.612,2.297,0.356,2.763
				c0.772,0.371,1.476,0.692,2.335,0.776c0.921,0.088,2.386-0.228,2.864-1.054c0.86-1.483,0.079-3.197-1.385-3.921
				c-0.86-0.425-1.898-0.239-2.407,0.631c-0.459,0.784-0.228,1.982,0.631,2.408c0.138,0.068,0.534,0.371,0.093,0.02
				c0.128,0.102,0.331,0.436,0.062,0.023c-0.16-0.244-0.18-0.681-0.031-0.936c0.35-0.27,0.701-0.539,1.051-0.809
				c-0.222,0.044-0.444,0.087-0.667,0.126c-0.21,0.033-0.178,0.029,0.097-0.013c-0.103,0.011-0.205,0.009-0.308,0.005
				c0.561,0.021,0.065-0.011-0.127-0.083c0.465,0.173-0.325-0.162-0.431-0.212c0.119,0.921,0.237,1.842,0.356,2.763
				c0.722-0.598,1.44-1.582,1.62-2.52c0.179-0.941-0.25-1.895-1.229-2.165C119.356,125.129,118.239,125.654,118.059,126.597
				L118.059,126.597z"/>
		</g>
	</g>
	<g>
		<g>
			<path fill="#414042" d="M169.146,133.018c-0.088-0.177-0.135-0.363-0.141-0.561c0.053-0.316,0.061-0.382,0.025-0.191
				c-0.055,0.285-0.098,0.569-0.135,0.858c-0.082,0.651,0.248,1.383,0.687,1.847c0.959,1.016,3.058,1.459,4.089,0.353
				c0.951-1.021,1.289-2.218,0.711-3.513c-0.154-0.347-0.479-0.66-0.758-0.918c-0.098-0.09-0.193-0.179-0.289-0.271
				c-0.046-0.047-0.09-0.095-0.133-0.144c0.359,0.403,0.001-0.144,0.208,0.369c-0.358-0.889-1.158-1.506-2.164-1.229
				c-0.845,0.232-1.589,1.273-1.229,2.164c0.274,0.68,0.658,1.172,1.19,1.662c0.069,0.065,0.138,0.135,0.203,0.203
				c0.118,0.14,0.082,0.093-0.11-0.141c0.088,0.159,0.062,0.1-0.072-0.184c-0.053-0.19-0.051-0.379,0.006-0.567
				c-0.049,0.171-0.031,0.14,0.055-0.093c-0.047,0.086-0.1,0.169-0.156,0.248c0.094-0.135,0.062-0.11-0.088,0.068
				c0.415-0.172,0.829-0.344,1.244-0.516c-0.311-0.039-0.62-0.079-0.932-0.117c0.297,0.079,0.593,0.159,0.889,0.239
				c-0.355-0.188,0.056,0.155,0.125,0.369c0.027,0.3,0.042,0.354,0.045,0.165c-0.025,0.521-0.021,0.22,0.009,0.076
				c0.144-0.676,0.14-1.357-0.239-1.959c-0.512-0.812-1.561-1.129-2.408-0.633C168.971,131.082,168.634,132.205,169.146,133.018
				L169.146,133.018z"/>
		</g>
	</g>
	<g>
		<g>
			<path fill="#414042" d="M143.209,139.672c1.804,0.26,3.766,1.104,5.59,0.594c-0.742-0.565-1.484-1.132-2.228-1.697
				c0.044,0.565,0.081,1.156-0.012,1.717c-0.049,0.292-0.137,0.574-0.234,0.852c0.08-0.228-0.361,0.453-0.089,0.139
				c-0.177,0.205,0.18-0.062,0.406-0.088c0.246,0.057,0.268,0.06,0.064,0.01c0.19,0.082,0.192,0.072,0.004-0.034
				c0.195,0.123-0.191-0.269-0.21-0.296c-0.191-0.28-0.361-0.598-0.492-0.911c-0.369-0.884-1.149-1.508-2.164-1.229
				c-0.836,0.229-1.6,1.277-1.229,2.164c0.777,1.858,2.401,4.59,4.874,3.66c2.34-0.879,2.768-3.801,2.601-5.98
				c-0.087-1.123-1.06-2.022-2.228-1.696c-0.191,0.049-0.211,0.058-0.057,0.024c-0.142,0.004-0.282,0.002-0.424-0.01
				c-0.344-0.015-0.684-0.1-1.02-0.166c-0.739-0.149-1.471-0.334-2.219-0.441c-0.948-0.137-1.887,0.218-2.164,1.229
				C141.75,138.344,142.258,139.536,143.209,139.672L143.209,139.672z"/>
		</g>
	</g>
	<g>
		<g>
			<path fill="#414042" d="M133.406,158.691c-11.108-3.553-21.136-9.408-28.782-18.313c-1.48-1.726-3.958,0.776-2.488,2.488
				c8.025,9.347,18.685,15.493,30.335,19.219C134.638,162.777,135.559,159.381,133.406,158.691L133.406,158.691z"/>
		</g>
	</g>
	<g>
		<g>
			<path fill="#414042" d="M134.331,152.52c-1.858,8.939-6.382,17.649-6.582,26.875c-0.203,9.357,8.325,12.799,16.285,13.875
				c8.772,1.188,21.69,1.473,23.386-9.717c1.518-10.022-4.34-20.865-7.115-30.216c-0.599-2.013-3.748-1.155-3.146,0.867
				c2.482,8.362,6.378,16.662,7.121,25.433c1.068,12.598-13.119,11.562-21.921,10.104c-8.452-1.398-12.424-6.101-10.904-14.533
				c1.338-7.427,4.489-14.427,6.025-21.821C137.904,151.332,134.759,150.458,134.331,152.52L134.331,152.52z"/>
		</g>
	</g>
</g>
<ellipse opacity="0.25" fill="#414042" cx="148.309" cy="214.581" rx="34.231" ry="2.872"/>
</svg>
